<?xml version="1.0" encoding="UTF-8"?>
<svg width="400px" height="300px" viewBox="0 0 400 300" version="1.1" xmlns="http://www.w3.org/2000/svg" xmlns:xlink="http://www.w3.org/1999/xlink">
    <!-- Generator: Sketch 57.1 (83088) - https://sketch.com -->
    <title>organizationManagement</title>
    <desc>Created with Sketch.</desc>
    <g id="9-3" stroke="none" stroke-width="1" fill="none" fill-rule="evenodd">
        <g id="organizationManagement" fill-rule="nonzero">
            <g id="background" fill="#CDD2EA">
                <rect id="Rectangle" x="0" y="0" width="400" height="300"></rect>
            </g>
            <g id="artwork" transform="translate(126.000000, 84.000000)">
                <path d="M112.6,131.11 L8.3,131.11 C6.76855508,131.104491 5.53,129.861455 5.53,128.33 L5.53,52 C5.53,51.2636144 5.82320596,50.5575344 6.34484655,50.0377702 C6.86648714,49.518006 7.57361922,49.2273416 8.31,49.2299819 L37.8,49.2299819 C38.7701481,49.23082 39.6691656,49.7391253 40.17,50.57 L43.17,55.57 C43.672672,56.4039309 44.5762892,56.9126902 45.55,56.91 L112.55,56.91 C113.286386,56.9099952 113.992466,57.203206 114.51223,57.7248466 C115.031994,58.2464871 115.322658,58.9536192 115.32,59.69 L115.32,128.27 C115.341499,129.008869 115.06572,129.725485 114.554439,130.259322 C114.043159,130.793159 113.339109,131.0996 112.6,131.11 L112.6,131.11 Z" id="Path" fill="#001A96"></path>
                <rect id="Rectangle" fill="#6776C0" x="58.52" y="2.79" width="85.22" height="111.46"></rect>
                <rect id="Rectangle" fill="#FFFFFF" x="61.94" y="6.21" width="85.22" height="111.46"></rect>
                <rect id="Rectangle" fill="#F5F5F5" x="75.69" y="27.57" width="7.77" height="7.73"></rect>
                <polygon id="Path" fill="#E00099" points="86.83 27.92 85.35 26.59 79.64 33.11 76.13 29.75 74.75 31.19 79.75 35.98"></polygon>
                <rect id="Rectangle" fill="#F5F5F5" x="92.56" y="27.57" width="41.54" height="1.93"></rect>
                <rect id="Rectangle" fill="#F5F5F5" x="92.56" y="33.36" width="31.88" height="1.93"></rect>
                <rect id="Rectangle" fill="#F5F5F5" x="75.69" y="50.75" width="7.77" height="7.73"></rect>
                <polygon id="Path" fill="#E00099" points="86.83 51.1 85.35 49.77 79.64 56.3 76.13 52.93 74.75 54.37 79.75 59.16"></polygon>
                <rect id="Rectangle" fill="#F5F5F5" x="92.56" y="50.75" width="33.81" height="1.93"></rect>
                <rect id="Rectangle" fill="#F5F5F5" x="92.56" y="56.55" width="36.71" height="1.93"></rect>
                <rect id="Rectangle" fill="#F5F5F5" x="75.69" y="73.93" width="7.77" height="7.73"></rect>
                <polygon id="Path" fill="#CCCCCC" points="86.83 74.28 85.35 72.95 79.64 79.48 76.13 76.12 74.75 77.55 79.75 82.35"></polygon>
                <rect id="Rectangle" fill="#F5F5F5" x="92.56" y="73.93" width="40.57" height="1.93"></rect>
                <rect id="Rectangle" fill="#F5F5F5" x="92.56" y="79.73" width="26.08" height="1.93"></rect>
                <path d="M67.94,15.82 L67.94,15.82 C66.7808221,15.8145836 65.8409231,14.8791391 65.83,13.72 L65.83,5.72 L66.83,5.72 L66.83,13.72 C66.8330734,14.0113391 66.9475782,14.2904448 67.15,14.5 C67.3596266,14.7085017 67.6443625,14.8238377 67.94,14.82 L67.94,14.82 C68.2321808,14.8211588 68.5128179,14.7060256 68.72,14.5 C68.9224218,14.2904448 69.0369266,14.0113391 69.04,13.72 L69.04,3.29 C69.0917313,2.57646325 68.7403766,1.89384294 68.1296226,1.5212971 C67.5188687,1.14875127 66.7511313,1.14875127 66.1403774,1.5212971 C65.5296234,1.89384294 65.1782687,2.57646325 65.23,3.29 L64.23,3.29 C64.1666938,2.21146971 64.7061225,1.18664124 65.6310296,0.62826686 C66.5559368,0.0698924747 67.7140632,0.0698924747 68.6389704,0.62826686 C69.5638775,1.18664124 70.1033062,2.21146971 70.04,3.29 L70.04,13.72 C70.04,14.879798 69.099798,15.82 67.94,15.82 L67.94,15.82 Z" id="Path" fill="#3348AB"></path>
                <path d="M109.88,128.2 L109.88,65.53 C109.88,63.9946484 108.635352,62.75 107.1,62.75 L42.88,62.75 C41.8755375,62.7504496 40.9495394,62.2070954 40.46,61.33 L37.4,55.85 C36.9120463,54.9713543 35.9850424,54.4274099 34.98,54.4299908 L3.62,54.4299908 C2.88361443,54.4299908 2.17753437,54.723206 1.65777019,55.2448466 C1.138006,55.7664871 0.847341568,56.4736192 0.849981924,57.21 L0.849981924,128.34 C0.849981924,129.875352 2.0946484,131.12 3.63,131.12 L112.63,131.12 C111.074792,131.049901 109.856799,129.756614 109.88,128.2 L109.88,128.2 Z" id="Path" fill="#3348AB"></path>
            </g>
        </g>
    </g>
</svg>