<?xml version="1.0" encoding="UTF-8"?>
<svg width="167px" height="123px" viewBox="0 0 167 123" version="1.1" xmlns="http://www.w3.org/2000/svg" xmlns:xlink="http://www.w3.org/1999/xlink">
    <!-- Generator: Sketch 56 (81588) - https://sketch.com -->
    <title>expert-tutors</title>
    <desc>Created with Sketch.</desc>
    <defs>
        <rect id="path-1" x="0" y="39.3999992" width="148" height="75" rx="37.5"></rect>
    </defs>
    <g id="Visual" stroke="none" stroke-width="1" fill="none" fill-rule="evenodd">
        <g id="Homework-help" transform="translate(-348.000000, -744.000000)">
            <g id="Group-3-Copy-2" transform="translate(0.000000, 668.000000)">
                <g id="Group-2" transform="translate(264.000000, 76.000000)">
                    <g id="expert-tutors" transform="translate(84.000000, 0.000000)">
                        <rect id="Rectangle" fill="#FFFFFF" x="0" y="0" width="167" height="123"></rect>
                        <mask id="mask-2" fill="white">
                            <use xlink:href="#path-1"></use>
                        </mask>
                        <use id="Rectangle" fill="#F2F2F2" xlink:href="#path-1"></use>
                        <path d="M166.239991,13.1439962 L166.239991,41.4848532 C166.23818,43.8813347 164.353313,45.8236011 162.027653,45.8254668 L141.435461,45.8254668 L131.851818,53.6067693 C131.741912,53.6937758 131.59338,53.7082959 131.469557,53.6441385 C131.345734,53.579981 131.268463,53.4484643 131.270693,53.3056667 L131.270693,45.8254668 L117.412332,45.8254668 C115.086672,45.8236011 113.201805,43.8813347 113.199994,41.4848532 L113.199994,13.1439962 C113.199994,10.7461936 115.085391,8.80186692 117.412332,8.79999948 L162.027653,8.79999948 C164.354594,8.80186692 166.239991,10.7461936 166.239991,13.1439962 L166.239991,13.1439962 Z" id="Path" fill="#D34698" fill-rule="nonzero"></path>
                        <text id="A" font-family="HaasGrotText-75Bold, Haas Grot Text" font-size="22.3999987" font-weight="bold" fill="#FFFFFF">
                            <tspan x="131.756793" y="33.999999">A</tspan>
                        </text>
                        <path d="M36.026104,55.9542824 C36.026104,55.9542824 48.9018927,50.4754256 49.6042084,49.6594256 L63.5334707,49.8925685 L68.0985231,55.021711 L63.1823129,78.802281 L36.026104,55.9542824 Z" id="Path" fill="#FFFFFF" fill-rule="nonzero"></path>
                        <path d="M124.751993,51.990854 L124.986099,51.990854 C124.283783,57.0034252 123.347362,62.0159963 122.176836,66.911996 C121.006309,71.8079957 118.548204,82.8822808 114.100205,88.477709 C111.663808,91.6149763 107.755049,93.2516753 103.799574,92.7908516 C95.0206267,91.7417088 83.9006274,85.3302806 78.1650488,79.2685667 C78.2856168,78.6921444 78.363859,78.1077407 78.3991541,77.5199954 C78.4157533,75.3861097 78.0998568,73.2625745 77.4627331,71.2251386 L77.6968383,71.2251386 C80.7402065,68.7771388 83.4324169,62.5988534 83.4324169,62.5988534 C82.7898469,61.8423534 82.0850925,61.1404963 81.3254697,60.5005678 C85.1882063,63.2982819 90.4555744,67.9611388 93.9671531,71.1085672 C97.4787319,74.2559956 100.873258,78.6857096 104.501889,77.6365668 L104.618942,77.6365668 L104.9701,77.9862811 L107.428205,79.7348524 L104.9701,77.8697096 C105.087152,77.6365668 105.087152,77.5199954 105.204205,77.403424 C108.832836,75.5382812 110.471573,67.9611388 111.993257,64.697139 C113.514941,61.4331392 116.324204,54.9051396 118.079994,49.775997 L118.079994,49.775997 C119.133467,50.2422827 122.293888,51.990854 124.751993,51.990854 Z" id="Path" fill="#001A96" fill-rule="nonzero"></path>
                        <path d="M117.377678,49.3097113 L118.079994,49.6594256 C116.324204,54.7885682 114.217257,59.6845679 111.993257,64.5805676 C109.769257,69.4765673 108.832836,75.4217098 105.204205,77.2868525 C108.130521,69.2434244 117.377678,49.3097113 117.377678,49.3097113 Z" id="Path" fill="#001A96" fill-rule="nonzero"></path>
                        <polygon id="Path" fill="#001A7D" fill-rule="nonzero" points="107.428205 79.618281 104.9701 77.8697096 104.9701 77.8697096"></polygon>
                        <path d="M105.204205,77.2868525 C105.087152,77.403424 105.087152,77.5199954 104.9701,77.7531382 L104.735995,77.5199954 C104.846524,77.3732286 105.019989,77.2868525 105.204205,77.2868525 L105.204205,77.2868525 Z" id="Path" fill="#D2F0F9" fill-rule="nonzero"></path>
                        <polygon id="Path" fill="#E6E6E6" fill-rule="nonzero" points="104.9701 77.7531382 104.9701 77.7531382 104.618942 77.403424 104.735995 77.403424"></polygon>
                        <path d="M80.3890487,59.5679964 L104.618942,77.6365668 L104.501889,77.6365668 C100.873258,78.6857096 99.8666494,77.3357656 93.8799319,72.7978152 C87.8932144,68.2598649 85.1882063,63.1817105 81.3254697,60.3839964 L80.3890487,59.5679964 Z" id="Path" fill="#001A96" fill-rule="nonzero"></path>
                        <path d="M80.271996,59.451425 L80.3890487,59.451425 L81.3254697,60.267425 C82.0850925,60.9073534 83.086748,61.4416763 83.729318,62.1981763 C83.729318,62.1981763 83.2218486,65.6845408 81.0230444,68.5439959 C79.5990347,70.3958623 78.5099577,71.3217955 77.7558132,71.3217955 C78.392937,73.3592314 78.4157533,75.1529669 78.3991541,77.2868525 C78.363859,77.8745978 78.2856168,78.4590016 78.1650488,79.0354239 C77.245713,83.5759082 76.6201448,88.1705074 76.2922068,92.7908516 C76.2922068,95.4719943 75.3557858,108.411422 75.1216806,110.975993 L72.7806281,110.975993 L48.0825243,111.675422 C48.3155001,110.961095 48.5890643,110.260537 48.9018927,109.577136 C44.6993978,109.404314 40.4917225,109.756776 36.3772618,110.626279 C35.9300674,108.836337 35.7720172,106.986881 35.9090513,105.147422 C36.0895648,103.910731 36.206769,102.665692 36.2602092,101.417137 C36.8454723,89.7599946 34.2703146,73.7897099 34.2703146,73.7897099 C30.8043472,75.9935573 26.8828348,77.3883399 22.7991574,77.8697096 C22.7991574,77.8697096 19.4046313,78.9188524 18.3511576,80.2011381 L18.3511576,80.5508523 C18.234105,70.9919958 21.7456837,66.911996 24.2037889,64.2308533 C29.3541043,58.7519965 36.4943144,55.3714253 41.4105247,53.3897111 L41.0593668,53.7394254 L55.2227344,69.4765673 L55.8079975,68.5439959 L60.958313,76.2377097 L63.5334707,67.1451389 L64.4698917,68.0777102 C64.4698917,68.0777102 67.51326,58.7519965 67.1621021,53.9725682 L64.9381022,51.4079969 C67.0450495,51.8742826 73.2488386,53.3897111 80.271996,59.451425 Z" id="Path" fill="#001A96" fill-rule="nonzero"></path>
                        <path d="M75.8239963,31.0079982 C76.8543856,32.4547804 76.9457839,34.3662543 76.0581016,35.9039979 C74.3023122,38.9348548 68.8008388,38.3519977 67.7473652,37.6525692 L68.0985231,37.3028549 C70.8722927,33.6292076 72.1665788,29.0554597 71.7271545,24.4799985 C71.9612597,25.2959985 72.7806281,28.3268555 74.3023122,29.4925697 C74.8663315,29.9377978 75.3769303,30.4462976 75.8239963,31.0079982 Z" id="Path" fill="#16191B" fill-rule="nonzero"></path>
                        <path d="M72.7806281,111.209136 L72.7806281,111.209136 L72.7806281,111.675422 L72.3124176,111.675422 C64.3573399,114.559604 55.9629773,116.058068 47.4972228,116.105136 C47.4940633,114.685887 47.691076,113.273227 48.0825243,111.908565 L72.7806281,111.209136 Z" id="Path" fill="#D2F0F9" fill-rule="nonzero"></path>
                        <path d="M71.7271545,24.4799985 C72.1665788,29.0554597 70.8722927,33.6292076 68.0985231,37.3028549 L67.7473652,37.6525692 C67.6827188,37.6525692 67.6303126,37.6003784 67.6303126,37.5359978 L69.2690493,31.9405695 L71.7271545,24.2468557 L71.7271545,24.4799985 Z" id="Path" fill="#F0DDD9" fill-rule="nonzero"></path>
                        <path d="M71.7271545,24.4799985 L71.7271545,24.2468557 L69.2690493,31.9405695 L66.2256811,31.0079982 C66.3499269,30.7753123 66.3019355,30.4885476 66.1086285,30.3085696 C65.4063127,29.1428554 63.5334707,25.4125699 63.4164181,25.1794271 L62.5970497,24.4799985 L69.9713651,16.7862847 C70.9891064,19.2335805 71.5827844,21.8350253 71.7271545,24.4799985 Z" id="Path" fill="#F0DDD9" fill-rule="nonzero"></path>
                        <path d="M69.386102,0.466285686 C78.0479962,6.29485677 70.0884177,16.7862847 70.0884177,16.7862847 L69.9713651,16.7862847 L69.5031546,15.7371419 L69.1519967,15.7371419 L69.6202072,15.0377134 C69.6202072,15.0377134 65.4063127,7.11085672 56.3932606,8.6262852 L55.9250501,6.64457103 C57.95973,6.16006136 59.7728983,5.01097041 61.0753656,3.38057123 C65.4063127,-1.6319999 69.386102,0.466285686 69.386102,0.466285686 Z" id="Path" fill="#16191B" fill-rule="nonzero"></path>
                        <path d="M69.9713651,16.7862847 L62.5970497,24.4799985 L47.4972612,40.2171405 L47.4972612,40.2171405 C47.314752,37.8703112 47.0021348,35.5353216 46.5608402,33.2228552 L46.2096823,33.2228552 C46.0926297,32.8731409 45.975577,32.7565695 45.7414718,32.7565695 C45.5073665,32.7565695 45.3903139,32.8731409 45.1562087,33.2228552 C44.0944839,32.9409315 43.1511265,32.3282276 42.4639983,31.4742838 C40.0058932,27.6274269 42.5810509,26.3451413 42.5810509,26.3451413 L43.1663141,26.3451413 C44.3368403,26.3451413 45.3903139,28.0937126 45.8585244,28.9097126 C46.3267349,29.7257125 47.9654717,30.6582839 47.9654717,30.6582839 L48.6677874,29.4925697 L48.0825243,22.7314272 C55.9099146,25.6597732 64.7249378,22.6847406 69.1519967,15.6205705 L69.5031546,15.6205705 L69.9713651,16.7862847 Z" id="Path" fill="#F0DDD9" fill-rule="nonzero"></path>
                        <path d="M69.6202072,14.921142 L69.1519967,15.6205705 C64.7249378,22.6847406 55.9099146,25.6597732 48.0825243,22.7314272 L48.6677874,29.4925697 L47.9654717,30.6582839 C47.9654717,30.6582839 47.1461033,28.9097126 45.8585244,28.7931411 C44.5709455,28.6765697 44.3368403,26.2285699 43.1663141,26.2285699 L43.2833667,26.2285699 C43.1416688,24.8693756 43.1810274,23.49749 43.4004193,22.1485701 C44.6879982,12.8228564 53.5839976,9.44228515 53.5839976,9.44228515 C54.4858944,9.06388517 55.4285137,8.79008476 56.3932606,8.6262852 C65.4063127,6.9942853 69.6202072,14.921142 69.6202072,14.921142 Z" id="Path" fill="#16191B" fill-rule="nonzero"></path>
                        <path d="M69.2690493,31.9405695 L67.6303126,37.5359978 C67.6303126,37.6003784 67.6827188,37.6525692 67.7473652,37.6525692 C66.3925688,38.9768265 64.7507223,39.9738368 62.9482076,40.5668547 C59.9528012,41.3713881 56.791814,41.3310292 53.8181029,40.4502833 L53.7010503,40.4502833 C53.7010503,40.4502833 58.6172605,43.7142831 62.9482076,42.8982832 L62.9482076,42.8982832 C63.0652602,44.8799973 63.1823129,47.56114 63.5334707,50.0091399 L63.2993655,49.775997 C63.2993655,49.775997 63.6505234,59.6845679 59.7877867,63.4148534 C59.7877867,63.4148534 47.9654717,52.9234254 47.3802085,50.7085684 C47.4708765,50.3268716 47.5102382,49.9348729 47.4972612,49.5428542 C47.7907922,46.4022134 47.7907922,43.2412099 47.4972612,40.100569 L47.4972612,40.100569 L62.5970497,24.4799985 L63.4164181,25.1794271 C63.5334707,25.5291413 64.703997,31.0079982 64.0016812,32.2902838 L64.2357865,32.2902838 C65.0409707,32.3254822 65.8022672,31.9240998 66.2256811,31.241141 L66.2256811,31.0079982 L69.2690493,31.9405695 Z" id="Path" fill="#F0DDD9" fill-rule="nonzero"></path>
                        <path d="M66.1086285,30.3085696 C66.3019355,30.4885476 66.3499269,30.7753123 66.2256811,31.0079982 L66.2256811,31.241141 C65.8022672,31.9240998 65.0409707,32.3254822 64.2357865,32.2902838 L64.0016812,32.2902838 C64.703997,31.0079982 63.5334707,25.5291413 63.4164181,25.1794271 C63.2993655,24.8297128 65.4063127,29.1428554 66.1086285,30.3085696 Z" id="Path" fill="#EEC4CA" fill-rule="nonzero"></path>
                        <path d="M62.9482076,43.0148546 L62.9482076,43.0148546 C58.6172605,43.8308545 53.7010503,40.5668547 53.7010503,40.5668547 L53.8181029,40.5668547 C56.791814,41.4476006 59.9528012,41.4879595 62.9482076,40.6834261 L62.9482076,40.6834261 L62.9482076,43.0148546 Z" id="Path" fill="#EEC4CA" fill-rule="nonzero"></path>
                        <path d="M55.9250501,6.52799961 L56.3932606,8.50971378 C55.4285137,8.67351334 54.4858944,8.94731375 53.5839976,9.32571373 C53.5839976,9.32571373 44.6879982,12.706285 43.4004193,22.0319987 L39.8888406,21.3325702 C40.0457265,20.3951251 39.9652612,19.4335102 39.6547353,18.534856 C37.8989459,13.0559992 45.2732613,5.01257113 50.8917873,6.41142819 C52.1496945,6.74777815 53.4563345,6.86607528 54.7545239,6.76114245 L55.9250501,6.52799961 Z" id="Path" fill="#16191B" fill-rule="nonzero"></path>
                        <path d="M48.9018927,109.810279 C48.5890643,110.49368 48.3155001,111.194238 48.0825243,111.908565 L31.5781042,112.37485 L33.3338936,111.791993 L36.3772618,110.859422 C40.4917225,109.989919 44.6993978,109.637457 48.9018927,109.810279 L48.9018927,109.810279 Z" id="Path" fill="#001A96" fill-rule="nonzero"></path>
                        <path d="M31.5781042,112.37485 L48.0825243,111.908565 C47.691076,113.273227 47.4940633,114.685887 47.4972612,116.105136 C40.8547982,116.201992 34.2215603,115.576575 27.7153676,114.239993 C28.9551596,113.524564 30.2462394,112.90116 31.5781042,112.37485 Z" id="Path" fill="#001A96" fill-rule="nonzero"></path>
                        <path d="M48.9018927,120.53485 C43.9312875,121.995534 38.7363011,122.548441 33.5679988,122.16685 L33.3338936,122.16685 L32.1633673,121.933707 C31.0520069,121.609762 29.9891193,121.139309 29.0029465,120.53485 C28.4176834,118.319993 22.5806343,115.964344 26.4277887,113.657136 L28.0079992,114.065136 C34.5228123,115.323487 40.8633365,116.27872 47.4972612,116.105136 C47.5107778,117.688269 47.9999999,119.231103 48.9018927,120.53485 Z" id="Path" fill="#001A96" fill-rule="nonzero"></path>
                        <path d="M46.5608402,33.2228552 C47.0021348,35.5353216 47.314752,37.8703112 47.4972612,40.2171405 C40.2399984,40.6834261 36.9625249,37.885712 35.4408408,34.9714265 C34.1809693,32.2413703 34.6884739,29.0250722 36.7284197,26.811427 C38.2884756,25.3253872 39.3856904,23.4232725 39.8888406,21.3325702 L43.4004193,22.0319987 C43.1810274,23.3809186 43.1416688,24.7528041 43.2833667,26.1119984 L42.5810509,26.1119984 C42.5810509,26.1119984 40.0058932,27.3942841 42.4639983,31.241141 C43.1511265,32.0950848 44.0944839,32.7077887 45.1562087,32.9897123 C45.0055993,33.5606331 44.9269592,34.1480089 44.9221034,34.7382836 C44.8050508,36.1371407 45.1562087,37.1862835 45.6244192,37.1862835 C46.0926297,37.1862835 46.4437875,36.1371407 46.5608402,34.8548551 C46.5804496,34.2151781 46.4606484,33.578865 46.2096823,32.9897123 L46.5608402,33.2228552 Z" id="Path" fill="#16191B" fill-rule="nonzero"></path>
                        <path d="M46.5608402,35.0879979 C46.4437875,36.3702835 46.0926297,37.4194263 45.6244192,37.4194263 C45.1562087,37.4194263 44.8050508,36.3702835 44.9221034,34.9714265 C44.9269592,34.3811517 45.0055993,33.793776 45.1562087,33.2228552 C45.4977953,33.3383271 45.8680957,33.3383271 46.2096823,33.2228552 C46.4606484,33.8120078 46.5804496,34.4483209 46.5608402,35.0879979 L46.5608402,35.0879979 Z" id="Path" fill="#E00099" fill-rule="nonzero"></path>
                        <path d="M46.2096823,33.2228552 C45.8680957,33.3383271 45.4977953,33.3383271 45.1562087,33.2228552 C45.3903139,32.8731409 45.5073665,32.7565695 45.7414718,32.7565695 C45.975577,32.7565695 46.0926297,32.8731409 46.2096823,33.2228552 Z" id="Path" fill="#E00099" fill-rule="nonzero"></path>
                        <path d="M33.3338936,111.791993 C35.6749461,110.276565 36.2602092,101.766851 36.2602092,101.766851 C36.206769,103.015407 36.0895648,104.260445 35.9090513,105.497137 C35.7843877,107.297935 36.2921844,109.085495 36.7270921,110.837835 L33.3338936,111.791993 Z" id="Path" fill="#001A96" fill-rule="nonzero"></path>
                        <path d="M38.9487855,82.8027469 C39.5340487,74.6615802 43.8101035,89.3903907 42.1713667,97.4338188 C40.7728079,104.163872 37.1979628,106.026765 34.8555777,112.491422 L27.0130519,113.540565 L26.661894,112.258279 L23.9696836,112.258279 C21.9366692,105.64563 20.3336288,98.9093886 19.170526,92.0914231 C18.5185119,88.3578752 18.319309,83.4129018 18.3483058,79.6234189 C20.7555149,78.4021012 26.2579388,76.255156 34.8555777,73.1825834 C35.8493903,73.537706 38.2537984,82.0111487 38.9487855,82.8027469 Z" id="Path" fill="#001A96" fill-rule="nonzero"></path>
                        <path d="M27.3642097,112.491422 L31.5781042,112.491422 C30.2462394,113.017731 28.9551596,113.641136 27.7153676,114.356565 L27.1301045,114.356565 C27.1026984,114.160144 27.0636122,113.965516 27.0130519,113.773708 L27.3642097,112.491422 Z" id="Path" fill="#001A96" fill-rule="nonzero"></path>
                        <path d="M27.2471571,114.356565 C27.8324202,116.221707 28.4176834,118.203422 29.0029465,120.418279 C27.3392979,119.346128 26.0350187,117.803663 25.2572625,115.988565 C25.9595782,115.63885 26.1936835,115.755422 26.1936835,115.871993 C26.287202,115.604637 26.3653635,115.332196 26.4277887,115.055993 C26.6313835,114.729292 26.7889277,114.376275 26.8959992,114.00685 L27.1301045,114.00685 C27.2471571,114.123422 27.2471571,114.239993 27.2471571,114.356565 Z" id="Path" fill="#001A96" fill-rule="nonzero"></path>
                        <path d="M27.7153676,114.239993 L27.2471571,114.239993 C27.2471571,114.123422 27.2471571,114.00685 27.1301045,114.00685 L27.7153676,114.239993 Z" id="Path" fill="#001A96" fill-rule="nonzero"></path>
                        <path d="M27.0130519,113.540565 C27.0636122,113.732373 27.1026984,113.927001 27.1301045,114.123422 L26.8959992,114.123422 C26.8959992,113.773708 27.0130519,113.657136 27.0130519,113.540565 Z" id="Path" fill="#001A96" fill-rule="nonzero"></path>
                        <path d="M27.422736,113.540565 C27.422736,113.657136 26.8959992,113.773708 26.8959992,114.00685 C26.7889277,114.376275 26.6313835,114.729292 26.4277887,115.055993 C26.3653635,115.332196 26.287202,115.604637 26.1936835,115.871993 C26.1936835,115.755422 25.9595782,115.63885 25.2572625,115.988565 C25.0503078,115.581302 24.8931165,115.150803 24.789052,114.706279 L24.4378941,113.540565 C24.2292761,113.093386 24.0722042,112.624107 23.9696836,112.141708 L26.661894,112.141708 L27.422736,113.540565 Z" id="Path" fill="#001A96" fill-rule="nonzero"></path>
                        <path d="" id="Path" fill="#001A96" fill-rule="nonzero"></path>
                        <path d="M126.624835,34.0388551 C126.624835,34.0388551 128.263572,33.6891408 127.912414,36.8365692 C128.666868,40.3160451 128.037511,43.9513081 126.156625,46.9782829 C125.465581,48.0424887 124.988547,49.2301709 124.751993,50.4754256 C124.730917,50.9876791 124.652395,51.4959796 124.517888,51.990854 L124.400836,51.990854 C121.964619,51.767485 119.626878,50.9245413 117.611783,49.5428542 L119.367573,46.162283 C119.367573,46.162283 116.55831,38.701712 125.571362,25.5291413 C125.571362,25.5291413 126.741888,24.0137129 126.741888,25.8788556 C126.741888,27.7439983 125.103151,29.9588554 125.103151,31.7074267 C125.103151,33.455998 126.624835,31.8239981 126.624835,34.0388551 Z" id="Path" fill="#F0DDD9" fill-rule="nonzero"></path>
                        <path d="M36.4943144,94.3062801 C36.4943144,94.3062801 36.6113671,108.061708 36.4943144,109.460565 C40.2634824,109.022574 44.053783,108.789086 47.848419,108.761136 C47.848419,108.761136 40.8252616,107.362279 38.3671564,107.595422 C38.3671564,107.595422 36.8454723,96.6377085 36.4943144,94.3062801 Z" id="Path" fill="#001A7D" fill-rule="nonzero"></path>
                        <path d="M87.0610483,108.061708 C87.1781009,108.178279 87.1781009,108.294851 87.1781009,108.527994 C87.1781009,108.978658 86.8112572,109.343993 86.3587325,109.343993 L85.6564168,109.343993 C84.364283,109.236022 83.0632631,109.314548 81.7936802,109.577136 L86.7098904,108.294851 L87.0610483,108.061708 Z" id="Path" fill="#F0DDD9" fill-rule="nonzero"></path>
                        <path d="M86.5928378,106.429708 C87.0453624,106.429708 87.4122062,106.795044 87.4122062,107.245708 C87.4122062,107.711994 87.1781009,108.061708 86.7098904,108.061708 C86.7098904,108.126088 86.6574842,108.178279 86.5928378,108.178279 L86.4757852,108.178279 C84.3510397,107.934795 82.198675,108.133268 80.1549434,108.761136 L84.954101,106.895994 L85.5393642,106.895994 C85.6948976,106.930208 85.8577153,106.899814 85.9902466,106.811823 C86.1227778,106.723832 86.2135727,106.585847 86.2416799,106.429708 L86.5928378,106.429708 Z" id="Path" fill="#F0DDD9" fill-rule="nonzero"></path>
                        <path d="M80.271996,109.810279 L81.208417,109.577136 L80.271996,109.810279 Z M81.7936802,109.460565 C83.0632631,109.197977 84.364283,109.119451 85.6564168,109.227422 L82.2618907,110.276565 L82.2618907,110.276565 L82.2618907,110.043422 C81.9107328,109.110851 80.9743118,109.926851 80.9743118,109.926851 C79.5365732,110.880689 77.8915299,111.48006 76.1751542,111.675422 C76.0458614,111.707612 75.9148459,111.629326 75.8825227,111.500565 C75.8501995,111.371804 75.9288088,111.241327 76.0581016,111.209136 C77.1587835,110.288535 78.1770685,109.274436 79.1014698,108.178279 C80.5061013,106.662851 83.3153643,106.779422 85.0711537,106.779422 L80.271996,108.644565 C82.3157277,108.016697 84.4680923,107.818223 86.5928378,108.061708 L86.5928378,108.061708 C86.6574842,108.061708 86.7098904,108.009517 86.7098904,107.945136 L86.7098904,107.945136 L81.7936802,109.460565 Z" id="Shape" fill="#F0DDD9" fill-rule="nonzero"></path>
                        <path d="M86.3587325,105.846851 L86.3587325,105.846851 C86.3696045,105.974486 86.3272744,106.100954 86.2416799,106.196565 L84.954101,106.662851 C83.1983117,106.662851 80.3890487,106.546279 78.9844172,108.061708 C78.0600159,109.157865 77.0417308,110.171964 75.9410489,111.092565 C75.8117562,111.124755 75.7331469,111.255232 75.7654701,111.383993 C75.7977932,111.512755 75.9288088,111.591041 76.0581016,111.55885 C77.7744772,111.363489 79.4195205,110.764118 80.8572592,109.810279 C80.8572592,109.810279 81.7936802,108.994279 82.144838,109.926851 L82.144838,110.159993 C82.0277854,110.393136 82.0277854,110.742851 81.9107328,110.859422 C81.7936802,110.975993 77.1115752,113.773708 77.1115752,113.773708 C74.3830219,115.288919 71.0611816,115.288919 68.3326283,113.773708 L64.703997,115.755422 L62.831155,109.926851 L67.6303126,109.110851 C67.6303126,109.110851 77.3456804,103.049137 85.5393642,104.914279 C85.778563,104.911834 86.0068901,105.013612 86.1644119,105.192897 C86.3219337,105.372182 86.3929182,105.611068 86.3587325,105.846851 L86.3587325,105.846851 Z" id="Path" fill="#F0DDD9" fill-rule="nonzero"></path>
                        <path d="M84.954101,106.779422 L86.2416799,106.313137 C86.2135727,106.469275 86.1227778,106.60726 85.9902466,106.695251 C85.8577153,106.783242 85.6948976,106.813637 85.5393642,106.779422 L84.954101,106.779422 Z" id="Path" fill="#EEC4CA" fill-rule="nonzero"></path>
                        <path d="M85.6564168,109.227422 C85.7420113,109.323033 85.7843413,109.449502 85.7734694,109.577136 C85.7771909,110.049892 85.4251011,110.450626 84.954101,110.509708 C84.8894547,110.509708 84.8370484,110.457517 84.8370484,110.393136 L82.2618907,110.393136 L85.6564168,109.343993 L85.6564168,109.227422 Z" id="Path" fill="#F0DDD9" fill-rule="nonzero"></path>
                        <path d="M81.208417,109.577136 L80.271996,109.810279 L81.208417,109.577136 Z" id="Path" fill="#EEC4CA" fill-rule="nonzero"></path>
                        <path d="M36.4943144,109.460565 C36.4943144,109.460565 60.7242077,107.828565 66.4597863,108.527994 L67.7473652,115.289136 C67.7473652,115.289136 45.975577,122.516564 37.5477881,122.283421 L36.4943144,109.460565 Z" id="Path" fill="#001A96" fill-rule="nonzero"></path>
                    </g>
                </g>
            </g>
        </g>
    </g>
</svg>