<?xml version="1.0" encoding="UTF-8"?>
<svg width="167px" height="122px" viewBox="0 0 167 122" version="1.1" xmlns="http://www.w3.org/2000/svg" xmlns:xlink="http://www.w3.org/1999/xlink">
    <!-- Generator: Sketch 56 (81588) - https://sketch.com -->
    <title>fast-answers</title>
    <desc>Created with Sketch.</desc>
    <defs>
        <rect id="path-1" x="1" y="43.9253793" width="165" height="77" rx="38.5"></rect>
        <polygon id="path-3" points="0.399252352 0.140606481 151.117015 0.140606481 151.117015 10.1219153 0.399252352 10.1219153"></polygon>
        <path d="M7.7854213,0.0389271065 C3.51317136,0.0389271065 0.0389271065,3.51317136 0.0389271065,7.7854213 C0.0389271065,12.0576712 3.51317136,15.5319155 7.7854213,15.5319155 C12.0576712,15.5319155 15.5319155,12.0576712 15.5319155,7.7854213 C15.5319155,3.51317136 12.0576712,0.0389271065 7.7854213,0.0389271065 Z M11.2888609,6.00450618 L6.60787633,10.3838057 C6.50082678,10.4713916 6.37431369,10.5297823 6.22833704,10.5297823 C6.08236039,10.5297823 5.93638374,10.4713916 5.83906597,10.3643421 L4.27224994,8.80725784 C4.05815085,8.58342698 4.05815085,8.23308302 4.27224994,8.01898394 C4.48634902,7.80488485 4.83669298,7.80488485 5.06052384,8.01898394 L6.23806882,9.19652891 L10.5395141,5.18703694 C10.7633449,4.98266963 11.1136889,4.99240141 11.3180562,5.21623227 C11.4251058,5.32328181 11.4737646,5.46925846 11.4737646,5.61523511 C11.4640329,5.77094354 11.4056422,5.90718841 11.2888609,6.00450618 L11.2888609,6.00450618 Z" id="path-5"></path>
    </defs>
    <g id="Visual" stroke="none" stroke-width="1" fill="none" fill-rule="evenodd">
        <g id="Homework-help" transform="translate(-1176.000000, -744.000000)">
            <g id="Group-3-Copy-2" transform="translate(0.000000, 668.000000)">
                <g id="Group-2" transform="translate(264.000000, 76.000000)">
                    <g id="fast-answers" transform="translate(912.000000, 0.000000)">
                        <rect id="Rectangle-Copy-4" fill="#FFFFFF" x="0" y="0" width="167" height="122"></rect>
                        <mask id="mask-2" fill="white">
                            <use xlink:href="#path-1"></use>
                        </mask>
                        <use id="Rectangle" fill="#F2F2F2" xlink:href="#path-1"></use>
                        <g id="Group-27-Copy" transform="translate(6.574580, 27.233740)">
                            <g id="Group-3" transform="translate(0.000000, 82.969583)">
                                <mask id="mask-4" fill="white">
                                    <use xlink:href="#path-3"></use>
                                </mask>
                                <g id="Clip-2"></g>
                                <path d="M135.077871,10.1219153 L16.4383962,10.1219153 C11.4147517,10.1219153 6.44728962,9.09153996 1.86561346,6.81685984 L1.37682642,6.63703505 C0.77005631,6.33526014 0.399252352,5.74307853 0.399252352,5.00827727 L0.399252352,1.70322182 C0.399252352,0.672846493 1.1183873,0.140606481 2.05195181,0.140606481 L148.619707,0.140606481 C150.020522,0.140606481 151.117015,1.0903707 151.117015,2.6374839 L151.117015,5.00724379 C151.117015,5.74204505 150.746211,6.40863691 150.139441,6.70937836 L149.642227,6.81582636 C145.060551,9.09153996 140.102452,10.1219153 135.077871,10.1219153" id="Fill-1" fill="#DDE0E3" mask="url(#mask-4)"></path>
                            </g>
                            <path d="M138.775515,83.3229754 L12.0128927,83.3229754 L12.0128927,5.24411108 C12.0128927,2.38847377 14.368169,0.37734525 16.9129713,0.37734525 L133.914997,0.37734525 C136.437719,0.37734525 138.775515,2.36782563 138.775515,5.19971759 L138.775515,83.3229754 Z" id="Fill-4" fill="#DDE0E3"></path>
                            <polygon id="Fill-6" fill="#FFFFFF" points="17.0035472 83.3226657 133.78486 83.3226657 133.78486 7.68854075 17.0035472 7.68854075"></polygon>
                            <path d="M0.157351056,89.3056698 C0.32903168,89.3056698 0.611413471,89.8497482 0.975413919,90.029387 L1.48388877,90.0634564 C6.07423463,92.3368163 11.0501583,93.2938574 16.084247,93.2938574 L134.948218,93.2938574 C139.981369,93.2938574 144.959169,92.2645478 149.549514,89.9911879 L150.057989,89.9560861 C150.421052,89.7764473 150.704372,89.3056698 150.875114,89.3056698 L0.157351056,89.3056698 Z" id="Fill-8" fill="#A7AAAD"></path>
                        </g>
                        <g id="Group-58" transform="translate(128.250473, 75.409348)">
                            <polygon id="Fill-1" fill="#A7AAAD" points="13.6722745 9.66307146 23.1892335 9.66307146 23.1892335 4.58855156 13.6722745 4.58855156"></polygon>
                            <g id="Group-57" transform="translate(0.000000, 0.153489)">
                                <path d="M23.233884,6.24014624 L13.6278145,6.24014624 C13.0957721,6.24014624 12.6645152,5.80469936 12.6645152,5.26748783 L12.6645152,1.05977185 C12.6645152,0.522560313 13.0957721,0.0871134337 13.6278145,0.0871134337 L23.233884,0.0871134337 C23.7659264,0.0871134337 24.1971834,0.522560313 24.1971834,1.05977185 L24.1971834,5.26748783 C24.1971834,5.80469936 23.7659264,6.24014624 23.233884,6.24014624" id="Fill-2" fill="#3348AB"></path>
                                <path d="M33.7901961,13.6489742 L29.3518236,9.16772057 C29.2081507,9.02241122 28.9748907,9.02241122 28.8312178,9.16772057 L26.3983092,11.6242665 C26.2543981,11.7693352 26.2543981,12.0046209 26.3983092,12.1499302 L30.8366817,16.6311838 C30.9803546,16.7764932 31.2133763,16.7764932 31.3572875,16.6311838 L33.7901961,14.1748785 C33.933869,14.0295692 33.933869,13.7942835 33.7901961,13.6489742" id="Fill-16" fill="#3348AB"></path>
                                <path d="M3.07140713,13.6489742 L7.50977962,9.16772057 C7.65345251,9.02241122 7.88671248,9.02241122 8.03038537,9.16772057 L10.463294,11.6242665 C10.6072051,11.7693352 10.6072051,12.0046209 10.463294,12.1499302 L6.02492149,16.6311838 C5.8812486,16.7764932 5.64798863,16.7764932 5.50431574,16.6311838 L3.07140713,14.1748785 C2.92749598,14.0295692 2.92749598,13.7942835 3.07140713,13.6489742" id="Fill-18" fill="#3348AB"></path>
                                <g id="Group-22" transform="translate(0.000000, 7.698508)" fill="#D34698">
                                    <path d="M36.8615556,18.6797329 C36.8615556,28.9577227 28.6097757,37.2894334 18.4309207,37.2894334 C8.25182747,37.2894334 4.76527008e-05,28.9577227 4.76527008e-05,18.6797329 C4.76527008e-05,8.40174304 8.25182747,0.0700323683 18.4309207,0.0700323683 C28.6097757,0.0700323683 36.8615556,8.40174304 36.8615556,18.6797329" id="Fill-20"></path>
                                </g>
                                <path d="M33.8409224,26.3782412 C33.8409224,34.9719418 26.9415262,41.9381295 18.430754,41.9381295 C9.91998171,41.9381295 3.02058553,34.9719418 3.02058553,26.3782412 C3.02058553,17.7847813 9.91998171,10.8183529 18.430754,10.8183529 C26.9415262,10.8183529 33.8409224,17.7847813 33.8409224,26.3782412" id="Fill-25" fill="#F9FAFB"></path>
                                <path d="M20.1325034,26.3782412 C20.1325034,27.3270824 19.3705367,28.0966926 18.4308254,28.0966926 C17.4911142,28.0966926 16.7291475,27.3270824 16.7291475,26.3782412 C16.7291475,25.4294001 17.4911142,24.6600304 18.4308254,24.6600304 C19.3705367,24.6600304 20.1325034,25.4294001 20.1325034,26.3782412" id="Fill-51" fill="#A7AAAD"></path>
                                <path d="M21.0726554,24.865466 L13.7780618,19.3347985 L22.0874711,23.1772981 C22.5888357,23.4093931 22.8097113,24.0002456 22.5811615,24.4972683 C22.3523718,24.9942901 21.7602448,25.2091596 21.2588812,24.9773034 C21.193235,24.9469357 21.1282687,24.9070172 21.0726554,24.865466" id="Fill-53" fill="#A7AAAD" transform="translate(18.224695, 22.202729) rotate(-300.000000) translate(-18.224695, -22.202729) "></path>
                                <path d="M18.6715549,27.8976033 L28.712558,23.211593 L19.6708685,29.6168048 C19.2253218,29.9326889 18.6062744,29.8232929 18.2884107,29.3729274 C17.970547,28.9225619 18.0739968,28.3014078 18.5195454,27.9860037 C18.5669337,27.9523632 18.6210216,27.9216308 18.6715549,27.8976033" id="Fill-55" fill="#A7AAAD" transform="translate(23.408306, 26.504473) rotate(-330.000000) translate(-23.408306, -26.504473) "></path>
                            </g>
                        </g>
                        <g id="Group" transform="translate(150.000000, 105.000000)">
                            <circle id="Oval" fill="#FFFFFF" cx="7.98504705" cy="7.98504705" r="7.98504705"></circle>
                            <g id="Icon-/-chi-check-circle-filled">
                                <mask id="mask-6" fill="white">
                                    <use xlink:href="#path-5"></use>
                                </mask>
                                <g id="chi-check-circle-filled" fill-rule="nonzero"></g>
                                <g id="Color-/-Extended-/-Success-green" mask="url(#mask-6)" fill="#30A04D" fill-rule="evenodd">
                                    <rect id="Color-/-Green" x="0" y="0" width="15.9654254" height="15.959231"></rect>
                                </g>
                            </g>
                        </g>
                        <g id="Group-18" transform="translate(45.398133, 49.457945)">
                            <rect id="Rectangle-Copy-14" fill="#3348AB" x="30.6825423" y="17.3974207" width="15.7205609" height="26.6201498"></rect>
                            <path d="M2.5886797,0 L33.4373845,0 L43.4122328,9.46869047 L43.4122328,47.8104693 C43.4122328,48.9680994 42.4737881,49.906544 41.316158,49.906544 L2.5886797,49.906544 C1.43104956,49.906544 0.492604913,48.9680994 0.492604913,47.8104693 L0.492604913,2.09607478 C0.492604913,0.938444646 1.43104956,-2.31436003e-16 2.5886797,0 Z" id="Rectangle" fill="#3348AB"></path>
                            <rect id="Rectangle" fill="#3348AB" x="30.6825423" y="17.3974207" width="15.7205609" height="6.91704679"></rect>
                            <g id="Group-2" transform="translate(56.923404, 28.865945) scale(-1, 1) translate(-56.923404, -28.865945) translate(26.979477, 11.149122)">
                                <rect id="Rectangle" fill="#3348AB" x="7.3462422" y="0" width="47.4112168" height="4.19214957" rx="2.09607478"></rect>
                                <rect id="Rectangle-Copy-18" fill="#3348AB" x="0.339364146" y="0" width="3.99252352" height="4.19214957" rx="1.99626176"></rect>
                                <rect id="Rectangle-Copy-7" fill="#3348AB" x="14.3331584" y="8.80351409" width="40.4243007" height="4.19214957" rx="2.09607478"></rect>
                                <rect id="Rectangle-Copy-9" fill="#3348AB" x="27.5084868" y="17.6070282" width="23.8952525" height="4.19214957" rx="2.09607478"></rect>
                                <rect id="Rectangle-Copy-19" fill="#3348AB" x="21.5197016" y="17.6070282" width="3.99252352" height="4.19214957" rx="1.99626176"></rect>
                                <rect id="Rectangle-Copy-11" fill="#3348AB" x="29.9439264" y="26.4105423" width="28.5066171" height="4.19214957" rx="2.09607478"></rect>
                                <rect id="Rectangle-Copy-20" fill="#3348AB" x="23.4560757" y="26.4105423" width="3.99252352" height="4.19214957" rx="1.99626176"></rect>
                                <rect id="Rectangle-Copy-21" fill="#3348AB" x="17.4672904" y="26.4105423" width="3.99252352" height="4.19214957" rx="1.99626176"></rect>
                                <rect id="Rectangle-Copy-6" fill="#FFFFFF" x="29.5945792" y="4.19214957" width="29.9439264" height="4.61136453" rx="2.09607478"></rect>
                                <rect id="Rectangle-Copy-8" fill="#FFFFFF" x="32.3494211" y="12.9956637" width="16.968225" height="4.61136453" rx="2.09607478"></rect>
                                <rect id="Rectangle-Copy-10" fill="#FFFFFF" x="33.9963369" y="21.7991778" width="19.9626176" height="4.61136453" rx="2.09607478"></rect>
                                <rect id="Rectangle-Copy-12" fill="#FFFFFF" x="31.8004491" y="30.6026918" width="14.9719632" height="4.61136453" rx="2.09607478"></rect>
                            </g>
                            <rect id="Rectangle-Copy-15" fill="#FFFFFF" x="7.02683993" y="31.2614583" width="17.1878132" height="1.67685983" rx="0.838429914"></rect>
                            <rect id="Rectangle-Copy-16" fill="#FFFFFF" x="6.98691617" y="37.429908" width="17.1878132" height="1.67685983" rx="0.838429914"></rect>
                            <rect id="Rectangle-Copy-17" fill="#FFFFFF" x="6.98691617" y="43.4186933" width="10.6899814" height="1.67685983" rx="0.838429914"></rect>
                            <text id="A" transform="translate(10.987094, 22.967158) rotate(-1.000000) translate(-10.987094, -22.967158) " font-family="HaasGrotText-75Bold, Haas Grot Text" font-size="10.4803739" font-weight="bold" fill="#FFFFFF">
                                <tspan x="6.98709444" y="26.4671584">A</tspan>
                            </text>
                            <path d="M33.4373845,-2.13162821e-14 L43.3705783,9.474589 L36.1622817,9.474589 C34.6573625,9.474589 33.4373845,8.25461096 33.4373845,6.74969178 L33.4373845,-2.13162821e-14 Z" id="Path-5" fill="#435CD4"></path>
                        </g>
                    </g>
                </g>
            </g>
        </g>
    </g>
</svg>