<?xml version="1.0" encoding="UTF-8"?>
<svg width="167px" height="123px" viewBox="0 0 167 123" version="1.1" xmlns="http://www.w3.org/2000/svg" xmlns:xlink="http://www.w3.org/1999/xlink">
    <!-- Generator: Sketch 56 (81588) - https://sketch.com -->
    <title>step by step</title>
    <desc>Created with Sketch.</desc>
    <defs>
        <rect id="path-1" x="4" y="43.3999992" width="156" height="79" rx="39.5"></rect>
    </defs>
    <g id="Visual" stroke="none" stroke-width="1" fill="none" fill-rule="evenodd">
        <g id="Homework-help" transform="translate(-756.000000, -744.000000)">
            <g id="Group-3-Copy-2" transform="translate(0.000000, 668.000000)">
                <g id="Group-2" transform="translate(264.000000, 76.000000)">
                    <g id="step-by-step" transform="translate(492.000000, 0.000000)">
                        <rect id="Rectangle-Copy-3" fill="#FFFFFF" x="0" y="0" width="167" height="122"></rect>
                        <mask id="mask-2" fill="white">
                            <use xlink:href="#path-1"></use>
                        </mask>
                        <use id="Rectangle" fill="#F2F2F2" xlink:href="#path-1"></use>
                        <g id="paper" mask="url(#mask-2)">
                            <g transform="translate(18.400192, 5.960192)">
                                <path d="M89.5967982,127.896093 L1.71935997,127.896093 C0.769919985,127.896093 1.49213975e-13,127.126173 1.49213975e-13,126.175773 L1.49213975e-13,10.6474558 C1.49213975e-13,9.69705581 0.769919985,8.92713582 1.71935997,8.92713582 L89.5967982,8.92713582 C90.5471982,8.92713582 91.3171182,9.69705581 91.3171182,10.6474558 L91.3171182,126.175773 C91.3171182,127.126173 90.5471982,127.896093 89.5967982,127.896093" id="Fill-1" fill="#DDE0E3"></path>
                                <polygon id="Fill-3" fill="#FFFFFF" points="4.72588791 123.515326 86.5908463 123.515326 86.5908463 12.6660477 4.72588791 12.6660477"></polygon>
                                <path d="M23.5246075,7.30454385 L68.5246075,7.30454385 L68.5246075,12.1295038 C68.5246075,13.4149437 67.4820467,14.4575037 66.1966067,14.4575037 L25.8526075,14.4575037 C24.5662075,14.4575037 23.5246075,13.4149437 23.5246075,12.1295038 L23.5246075,7.30454385 Z" id="Fill-5" fill="#3348AB"></path>
                                <path d="M45.3439671,6.46271987 C44.1948471,6.46271987 43.2636471,5.53055989 43.2636471,4.38143991 C43.2636471,3.23231994 44.1948471,2.30111995 45.3439671,2.30111995 C46.4930871,2.30111995 47.4252471,3.23231994 47.4252471,4.38143991 C47.4252471,5.53055989 46.4930871,6.46271987 45.3439671,6.46271987 M45.3439671,-1.42108547e-13 C42.9238071,-1.42108547e-13 40.9625272,1.96127996 40.9625272,4.38143991 C40.9625272,6.80159986 42.9238071,8.76287983 45.3439671,8.76287983 C47.7641271,8.76287983 49.725407,6.80159986 49.725407,4.38143991 C49.725407,1.96127996 47.7641271,-1.42108547e-13 45.3439671,-1.42108547e-13" id="Fill-6" fill="#3348AB"></path>
                                <polygon id="Fill-7" fill="#F5F5F5" points="23.1959995 46.2970551 15.4775997 46.2960951 15.4795197 38.6151352 23.1969595 38.6170552"></polygon>
                                <polygon id="Fill-8" fill="#D34A9A" points="26.5536955 38.9643832 25.0762555 37.6415033 19.4055356 44.1272631 15.9120957 40.7855032 14.5469757 42.2139832 19.5159356 46.9784631"></polygon>
                                <polygon id="Fill-9" fill="#F5F5F5" points="32.2404474 40.5367672 73.5204465 40.5367672 73.5204465 38.6167672 32.2404474 38.6167672"></polygon>
                                <polygon id="Fill-10" fill="#F5F5F5" points="32.2404474 46.2958071 63.9204467 46.2958071 63.9204467 44.3758071 32.2404474 44.3758071"></polygon>
                                <polygon id="Fill-11" fill="#F5F5F5" points="23.1959995 69.3370546 15.4775997 69.3360946 15.4795197 61.6551348 23.1969595 61.6570548"></polygon>
                                <polygon id="Fill-12" fill="#D34A9A" points="26.5536955 62.0043828 25.0762555 60.6815028 19.4055356 67.1672627 15.9120957 63.8255027 14.5469757 65.2539827 19.5159356 70.0184626"></polygon>
                                <polygon id="Fill-13" fill="#F5F5F5" points="32.2404474 63.5767667 65.8404467 63.5767667 65.8404467 61.6567668 32.2404474 61.6567668"></polygon>
                                <polygon id="Fill-14" fill="#F5F5F5" points="32.2404474 69.3358066 68.7204466 69.3358066 68.7204466 67.4158067 32.2404474 67.4158067"></polygon>
                                <polygon id="Fill-15" fill="#F5F5F5" points="23.1959995 92.3770542 15.4775997 92.3760942 15.4795197 84.6951343 23.1969595 84.6970543"></polygon>
                                <polygon id="Fill-16" fill="#D34A9A" points="26.5536955 85.0443823 25.0762555 83.7215023 19.4055356 90.2072622 15.9120957 86.8655023 14.5469757 88.2939822 19.5159356 93.0584622"></polygon>
                                <polygon id="Fill-17" fill="#F5F5F5" points="32.2404474 86.6167663 72.5604466 86.6167663 72.5604466 84.6967663 32.2404474 84.6967663"></polygon>
                                <polygon id="Fill-18" fill="#F5F5F5" points="32.2404474 92.3758062 58.1604468 92.3758062 58.1604468 90.4558062 32.2404474 90.4558062"></polygon>
                            </g>
                        </g>
                        <g id="paper-copy" transform="translate(18.400192, 5.000192)">
                            <path d="M89.5967982,108.767134 L1.71935997,108.767134 C0.769919985,108.767134 0,108.121009 0,107.323423 L0,10.3708464 C0,9.57326076 0.769919985,8.92713582 1.71935997,8.92713582 L89.5967982,8.92713582 C90.5471982,8.92713582 91.3171182,9.57326076 91.3171182,10.3708464 L91.3171182,107.323423 C91.3171182,108.121009 90.5471982,108.767134 89.5967982,108.767134" id="Fill-1" fill="#DDE0E3"></path>
                            <polygon id="Fill-3" fill="#FFFFFF" points="4.72588791 111.546046 86.5908463 111.546046 86.5908463 13.6260477 4.72588791 13.6260477"></polygon>
                            <polygon id="Fill-7" fill="#F5F5F5" points="23.1959995 47.2570551 15.4775997 47.2560951 15.4795197 39.5751352 23.1969595 39.5770552"></polygon>
                            <polygon id="Fill-9" fill="#DDE0E3" points="32.2404474 41.4967672 73.5204465 41.4967672 73.5204465 39.5767672 32.2404474 39.5767672"></polygon>
                            <polygon id="Fill-10" fill="#DDE0E3" points="32.2404474 47.2558071 63.9204467 47.2558071 63.9204467 45.3358071 32.2404474 45.3358071"></polygon>
                            <polygon id="Fill-11" fill="#F5F5F5" points="23.1959995 70.2970546 15.4775997 70.2960946 15.4795197 62.6151348 23.1969595 62.6170548"></polygon>
                            <polygon id="Fill-13" fill="#DDE0E3" points="32.2404474 64.5367667 65.8404467 64.5367667 65.8404467 62.6167668 32.2404474 62.6167668"></polygon>
                            <polygon id="Fill-14" fill="#DDE0E3" points="32.2404474 70.2958066 68.7204466 70.2958066 68.7204466 68.3758066 32.2404474 68.3758066"></polygon>
                            <polygon id="Fill-15" fill="#F5F5F5" points="23.1959995 93.3370541 15.4775997 93.3360941 15.4795197 85.6551343 23.1969595 85.6570543"></polygon>
                            <polygon id="Fill-17" fill="#DDE0E3" points="32.2404474 87.5767663 72.5604466 87.5767663 72.5604466 85.6567663 32.2404474 85.6567663"></polygon>
                            <polygon id="Fill-18" fill="#DDE0E3" points="32.2404474 93.3358061 58.1604468 93.3358061 58.1604468 91.4158062 32.2404474 91.4158062"></polygon>
                            <path d="M25.9198075,7.30435185 L70.9198075,7.30435185 L70.9198075,12.1293118 C70.9198075,13.4147517 69.8772466,14.4573117 68.5918066,14.4573117 L28.2478074,14.4573117 C26.9614075,14.4573117 25.9198075,13.4147517 25.9198075,12.1293118 L25.9198075,7.30435185 Z" id="Fill-5" fill="#3348AB"></path>
                            <path d="M47.7391671,6.46252787 C46.5900471,6.46252787 45.6588471,5.53036789 45.6588471,4.38124791 C45.6588471,3.23212794 46.5900471,2.30092795 47.7391671,2.30092795 C48.888287,2.30092795 49.820447,3.23212794 49.820447,4.38124791 C49.820447,5.53036789 48.888287,6.46252787 47.7391671,6.46252787 M47.7391671,-0.000191999997 C45.3190071,-0.000191999997 43.3577271,1.96108796 43.3577271,4.38124791 C43.3577271,6.80140786 45.3190071,8.76268783 47.7391671,8.76268783 C50.159327,8.76268783 52.120607,6.80140786 52.120607,4.38124791 C52.120607,1.96108796 50.159327,-0.000191999997 47.7391671,-0.000191999997" id="Fill-6" fill="#3348AB"></path>
                        </g>
                        <path d="M162.400006,56.2666876 L162.400006,90.3106627 C162.400906,91.6874698 161.874738,93.0081533 160.937447,93.9817031 C160.000157,94.955253 158.728663,95.5017762 157.403134,95.5008475 L134.961471,95.5008475 L135.042283,104.39481 C135.041369,104.565674 134.946896,104.721096 134.798773,104.795422 C134.650649,104.869747 134.47471,104.850012 134.345279,104.744553 L122.819464,95.5008475 L104.036892,95.5008475 C102.711364,95.5017762 101.439869,94.955253 100.502579,93.9817031 C99.5652889,93.0081533 99.0391209,91.6874698 99.0400048,90.3106627 L99.0400048,56.2666876 C99.0400048,54.8904864 99.5665773,53.5707019 100.50377,52.5979087 C101.440964,51.6251156 102.711948,51.0790723 104.036892,51.0799897 L157.403134,51.0799897 C158.728079,51.0790723 159.999063,51.6251156 160.936256,52.5979087 C161.873449,53.5707019 162.400006,54.8904864 162.400006,56.2666876 Z" id="Path" fill="#3348AB" fill-rule="nonzero" transform="translate(130.720005, 77.959994) scale(-1, 1) translate(-130.720005, -77.959994) "></path>
                        <polygon id="Fill-9" fill="#F5F5F5" points="108.240638 78.1769585 149.520637 78.1769585 149.520637 76.2569586 108.240638 76.2569586"></polygon>
                        <text id="Q" font-family="HaasGrotText-75Bold, Haas Grot Text" font-size="12.4799998" font-weight="bold" fill="#FFFFFF">
                            <tspan x="106.719998" y="69.7199989">Q</tspan>
                        </text>
                        <polygon id="Fill-10-Copy" fill="#F5F5F5" points="108.240638 85.8559984 139.920637 85.8559984 139.920637 83.9359984 108.240638 83.9359984"></polygon>
                        <text id="1" font-family="HaasGrotText-75Bold, Haas Grot Text" font-size="12.4799998" font-weight="bold" fill="#E00099">
                            <tspan x="34.7199994" y="51.4799993">1</tspan>
                        </text>
                        <text id="2" font-family="HaasGrotText-75Bold, Haas Grot Text" font-size="12.4799998" font-weight="bold" fill="#E00099">
                            <tspan x="33.7599994" y="74.5199988">2</tspan>
                        </text>
                        <text id="3" font-family="HaasGrotText-75Bold, Haas Grot Text" font-size="12.4799998" font-weight="bold" fill="#E00099">
                            <tspan x="33.7599994" y="97.5599984">3</tspan>
                        </text>
                    </g>
                </g>
            </g>
        </g>
    </g>
</svg>