<?xml version="1.0" encoding="UTF-8"?>
<svg width="381px" height="174px" viewBox="0 0 381 174" version="1.1" xmlns="http://www.w3.org/2000/svg" xmlns:xlink="http://www.w3.org/1999/xlink">
    <!-- Generator: Sketch 57 (83077) - https://sketch.com -->
    <title>subscribe</title>
    <desc>Created with Sketch.</desc>
    <defs>
        <polygon id="path-1" points="142.417613 22.1823492 291.014107 22.2703593 291.082931 159.228754 142.486438 159.140743"></polygon>
        <filter x="-9.1%" y="-7.7%" width="118.2%" height="119.7%" filterUnits="objectBoundingBox" id="filter-2">
            <feOffset dx="0" dy="3" in="SourceAlpha" result="shadowOffsetOuter1"></feOffset>
            <feGaussianBlur stdDeviation="4" in="shadowOffsetOuter1" result="shadowBlurOuter1"></feGaussianBlur>
            <feColorMatrix values="0 0 0 0 0.266666698   0 0 0 0 0.266666698   0 0 0 0 0.266666698  0 0 0 0.0286741395 0" type="matrix" in="shadowBlurOuter1"></feColorMatrix>
        </filter>
    </defs>
    <g id="Page-1" stroke="none" stroke-width="1" fill="none" fill-rule="evenodd">
        <g id="fullpage" transform="translate(-1027.000000, -5470.000000)">
            <g id="section-get_started-white" transform="translate(0.000000, 5149.000000)">
                <g id="section-get_started_content" transform="translate(120.000000, 71.000000)">
                    <g id="div-subscribe_access" transform="translate(750.000000, 160.000000)">
                        <g id="subscribe" transform="translate(157.000000, 90.000000)">
                            <rect id="Rectangle" fill="#FFFFFF" x="0" y="0" width="381" height="166"></rect>
                            <g id="illustration-/-subscribe" transform="translate(0.000000, 1.000000)" fill-rule="nonzero">
                                <g id="Group" opacity="0.5" transform="translate(264.526110, 20.191812)" fill="#D2F0F9">
                                    <path d="M60.2002847,10.5463386 C59.916537,9.54451405 58.5527172,9.08631525 57.3445011,8.99312227 C56.1362849,8.89992929 54.8456904,8.99312227 53.8205373,8.42619833 C52.7953842,7.85927439 52.2553482,6.78755515 51.2485014,6.17403472 C49.4178709,5.07125116 46.8641414,5.88668971 44.7314568,5.34306401 C42.5987722,4.79943831 41.3447903,3.14526297 39.6423039,2.01141508 C36.189236,-0.152447089 31.4499797,-0.0662813445 28.1093317,2.22109928 C26.7638182,3.19962554 25.6379805,4.55092371 23.9171878,4.90816345 C22.489296,5.19550846 21.0064852,4.70624533 19.5419808,4.71401141 C15.6335847,4.71401141 12.8144137,8.20874805 8.95178325,8.69801118 C7.51473829,8.87663105 6.04108072,8.62811644 4.61318891,8.80673632 C2.83747731,9.03195268 1.20821614,9.20280647 0.256288273,10.491976 L60.2002847,10.5463386 Z" id="Shape"></path>
                                </g>
                                <g id="Group" opacity="0.75" transform="translate(47.596394, 99.405842)" fill="#CCF1D6">
                                    <path d="M7.5513509,32.1205127 C4.26873908,38.2733923 7.22155168,45.5303642 14.2789181,48.6545 C20.4572961,51.4502893 28.3839262,50.8290028 34.2510971,47.5905469 C40.1182679,44.3520909 43.8985199,38.7372141 44.923673,32.8349922 C45.6376189,28.7655655 44.8412946,24.1059167 41.1159615,21.465449 C38.3700157,19.5394608 34.7087547,19.0579638 31.1756378,18.6463615 C31.5051513,13.7692623 30.2145568,8.63588253 26.4892236,4.90816345 C22.7638905,1.18044437 16.3200711,-0.768842059 10.97463,1.02512275 C5.26306275,2.98217526 2.32490076,8.42619833 1.27228821,13.5751103 C0.503799162,17.3588954 0.438940248,21.2214897 1.08007201,25.0223143 C1.25801971,26.6510973 1.8581393,28.2263646 2.83747731,29.6353667 C3.85747279,31.052093 5.67710559,31.912426 7.63372927,31.9030624 L7.5513509,32.1205127 Z" id="Shape"></path>
                                </g>
                                <path d="M73.7927163,164.524772 L73.7927163,164.524772 C73.671258,164.518438 73.5576127,164.471654 73.4768903,164.394421 C73.3961679,164.317188 73.3550128,164.215863 73.3625181,164.112832 C74.0581577,153.706283 72.1359957,149.069933 68.9690049,141.373746 C68.0536896,139.113816 66.9736176,136.551009 65.856933,133.522238 C60.9783027,120.319899 65.856933,111.427736 65.9118519,111.342309 C65.9615551,111.248654 66.0537683,111.176024 66.1675361,111.140923 C66.281304,111.105822 66.406964,111.111232 66.51596,111.155923 C66.6269732,111.199684 66.7126978,111.279354 66.7539775,111.37713 C66.7952573,111.474906 66.7886512,111.582637 66.7356357,111.676251 C66.7356357,111.761678 61.9668432,120.389794 66.7356357,133.289255 C67.8431671,136.310261 68.9049328,138.865302 69.8294012,141.117465 C73.0421578,148.883547 74.973473,153.597558 74.2778334,164.151663 C74.2630642,164.367401 74.0472021,164.533273 73.7927163,164.524772 Z" id="Shape" fill="#808080"></path>
                                <path d="M69.7287166,144.006448 L69.5914193,144.006448 C69.3512128,143.939648 69.2173143,143.722761 69.2893652,143.517184 C69.2893652,143.423991 72.694338,134.252249 83.4492923,130.454635 C83.6817843,130.378612 83.9436638,130.470908 84.0442472,130.66432 C84.0926694,130.760001 84.0937697,130.868174 84.0473013,130.96455 C84.0008328,131.060927 83.9106896,131.137429 83.7971121,131.176881 C73.4357434,134.826939 70.1955273,143.656974 70.1680679,143.742401 C70.1022192,143.900426 69.9262633,144.006174 69.7287166,144.006448 Z" id="Shape" fill="#808080"></path>
                                <path d="M315.591549,74.5543815 C315.591549,74.5543815 307.994432,82.6932348 311.591621,98.9709415 C315.18881,115.248648 318.392413,131.192413 305.596306,136.954846 C292.800199,142.717278 278.017857,133.227127 280.013245,120.00149 C282.008632,106.775853 290.411226,101.681304 291.20755,93.5424506 C292.003874,85.4035972 293.202937,71.5023115 307.994432,62.3383355 C322.785927,53.1743594 326.566179,60.5443707 325.586791,62.3383355 C323.188665,66.7883001 318.392413,68.7997152 315.591549,74.5543815 Z" id="Shape" fill="#CCF1D6" opacity="0.5"></path>
                                <path d="M292.589676,165.495195 C292.348951,165.495195 292.150997,165.334265 292.141172,165.130189 C291.038293,143.360609 292.17761,121.550896 295.546145,99.9494677 C301.129568,65.4835984 319.902684,61.7791776 320.699008,61.6393881 C320.816875,61.6163927 320.940692,61.6347603 321.04237,61.6903241 C321.144048,61.7458878 321.214969,61.8339378 321.239044,61.9344992 C321.284964,62.1456391 321.128134,62.3503526 320.882071,62.4004641 C320.689855,62.4004641 301.935045,66.1903118 296.452307,100.058193 C293.099949,121.608757 291.960675,143.365696 293.047334,165.083592 C293.054839,165.186623 293.013684,165.287948 292.932962,165.365181 C292.852239,165.442414 292.738594,165.489198 292.617136,165.495195 L292.589676,165.495195 Z" id="Shape" fill="#808080"></path>
                                <path d="M311.829603,105.991479 C311.829603,105.991479 320.982756,109.626005 322.117747,116.654309 C323.252737,123.682613 321.541098,126.835642 324.406035,129.747922 C327.270971,132.660203 335.829169,138.469232 329.540953,145.74605 C323.252737,153.022868 316.406179,150.102821 311.829603,147.920553 C307.253027,145.738284 303.829748,137.048039 308.406324,130.718682 C312.9829,124.389326 314.978288,119.807338 312.9829,114.720555 C310.987513,109.633771 305.55054,105.020719 311.829603,105.991479 Z" id="Shape" fill="#99E3AD"></path>
                                <path d="M317.614395,164.679756 L317.54117,164.679756 C317.421479,164.664563 317.314104,164.608973 317.243434,164.525614 C317.172765,164.442255 317.1448,164.338202 317.165891,164.23709 C325.037602,122.47887 313.440558,110.612298 313.321567,110.495806 C313.154747,110.332821 313.175237,110.085954 313.367333,109.944415 C313.559428,109.802875 313.850387,109.82026 314.017207,109.983245 C314.511477,110.464742 326.007836,122.245887 318.072053,164.345815 C318.036252,164.537097 317.842661,164.678356 317.614395,164.679756 L317.614395,164.679756 Z" id="Shape" fill="#808080"></path>
                                <path d="M129.718479,165.02923 C129.718479,165.02923 117.984137,146.219781 104.812751,145.474237 C95.8518141,144.969442 91.9342648,149.357278 88.7123551,151.368693 C86.1403192,152.976272 79.4310583,159.911382 73.6279596,161.464599 C65.0514556,163.670166 60.8135459,154.304272 50.2508078,154.280973 C41.2715651,154.280973 31.7797459,165.060294 31.7797459,165.060294 L129.718479,165.02923 Z" id="Shape" fill="#CCF1D6"></path>
                                <ellipse id="Oval" fill="#FFFFFF" cx="376.112194" cy="116.079619" rx="3.78940518" ry="3.2151577"></ellipse>
                                <g id="Group" opacity="0.5" transform="translate(24.713512, 0.000000)" fill="#D2F0F9">
                                    <path d="M0.704792751,13.5906425 C3.94500877,13.5906425 11.2492246,11.0977303 13.7754947,9.94835028 C16.3017648,8.79897024 19.3680709,7.61852586 21.894341,8.78343807 C22.3519987,8.98535619 22.8554221,9.26493512 23.331386,9.10184741 C23.9995661,8.88439713 23.9354941,8.0611925 24.2467013,7.54863113 C24.7318183,6.8108534 25.9217282,6.71766042 26.9011155,6.85744988 C27.8418271,7.11422079 28.8454808,7.15706656 29.811818,6.98170719 C30.8918901,6.62446744 31.4227729,5.62264294 31.9811152,4.76837398 C33.4156848,2.42023471 36.0403333,0.760071522 39.1022679,0.264046768 C42.1411146,-0.10872514 45.5094748,1.27363735 46.5895468,3.71218691 C47.0197449,4.69071317 47.0746639,5.77019849 47.5506278,6.73319258 C48.0265917,7.69618668 49.12497,8.58928604 50.2965736,8.395134 C52.0082131,8.13108723 52.5940149,6.06530958 54.2965013,5.71583592 C55.9989877,5.36636225 57.1522849,6.95840894 58.0859064,8.16215156 C59.3948073,9.85515731 60.2552036,13.5984085 65.3443565,13.5984085 L0.704792751,13.5906425 Z" id="Shape"></path>
                                </g>
                                <path d="M215.785573,145.334447 L101.270477,157.224318 L101.270477,78.0102877 C101.267618,75.781374 103.046097,73.8344224 105.590768,73.2807442 L215.785573,62.3305694 L215.785573,145.334447 Z" id="Shape" fill="#05278E"></path>
                                <polygon id="Rectangle-path" fill="#F2F2F2" transform="translate(210.193195, 85.110906) rotate(-89.810000) translate(-210.193195, -85.110906) " points="135.860535 16.587704 284.457029 16.6757141 284.525854 153.634108 135.92936 153.546098"></polygon>
                                <g id="Rectangle-path" transform="translate(216.750272, 90.705551) rotate(-89.810000) translate(-216.750272, -90.705551) ">
                                    <use fill="black" fill-opacity="1" filter="url(#filter-2)" xlink:href="#path-1"></use>
                                    <use fill="#FFFFFF" xlink:href="#path-1"></use>
                                </g>
                                <polygon id="Rectangle-path" fill="#F2F2F2" transform="translate(216.568981, 132.181110) rotate(0.190000) translate(-216.568981, -132.181110) " points="172.479245 130.638398 260.66057 130.594085 260.658716 133.723822 172.477391 133.768135"></polygon>
                                <polygon id="Rectangle-path" fill="#F2F2F2" transform="translate(209.679534, 144.331113) rotate(0.190000) translate(-209.679534, -144.331113) " points="172.431833 142.676238 246.929218 142.638801 246.927236 145.985989 172.429851 146.023426"></polygon>
                                <polygon id="Rectangle-path" fill="#F2F2F2" transform="translate(238.589515, 70.588478) rotate(0.190000) translate(-238.589515, -70.588478) " points="216.655013 68.925907 260.526 68.9038608 260.524018 72.2510485 216.65303 72.2730947"></polygon>
                                <polygon id="Rectangle-path" fill="#F2F2F2" transform="translate(238.667640, 45.915979) rotate(0.190000) translate(-238.667640, -45.915979) " points="216.751379 44.3621242 260.585754 44.3400964 260.5839 47.4698334 216.749526 47.4918612"></polygon>
                                <polygon id="Rectangle-path" fill="#F2F2F2" transform="translate(238.618772, 58.419172) rotate(0.190000) translate(-238.618772, -58.419172) " points="216.702511 56.8653178 260.536886 56.84329 260.535033 59.9730269 216.700658 59.9950548"></polygon>
                                <polygon id="Rectangle-path" fill="#F2F2F2" transform="translate(233.662378, 83.000259) rotate(0.190000) translate(-233.662378, -83.000259) " points="216.661416 81.3352088 250.665322 81.318121 250.663339 84.6653087 216.659434 84.6823965"></polygon>
                                <path d="M160.070333,27.8802342 L160.070333,27.8802342 C158.365878,27.8674776 156.990667,26.6937422 156.98572,25.2475307 L157.031486,14.0799056 L157.946801,14.0799056 L157.901036,25.2475307 C157.900581,25.7383594 158.127392,26.2096974 158.532603,26.5599984 C158.939478,26.9076273 159.492911,27.1032796 160.070333,27.1036241 L160.070333,27.1036241 C160.643467,27.1041301 161.193344,26.9113644 161.598909,26.5677645 C162.007791,26.2214189 162.240996,25.7532312 162.248783,25.2630628 L162.303702,10.7482567 C162.30861,9.9622442 161.942772,9.20721975 161.287702,8.65141469 C160.640846,8.08812719 159.752419,7.77147739 158.825504,7.77384749 L158.825504,7.77384749 C156.905136,7.77809053 155.348201,9.09562041 155.338153,10.7249584 L154.422838,10.7249584 C154.432898,8.66671258 156.399627,7.0014919 158.825504,6.99723935 L158.825504,6.99723935 C159.994755,6.99929327 161.11502,7.39589327 161.939227,8.09957101 C162.763435,8.80324875 163.223882,9.75620037 163.219055,10.7482567 L163.164098,25.2630628 C163.15867,25.9598361 162.829802,26.6267198 162.248783,27.1191563 C161.669914,27.6074026 160.886563,27.8810787 160.070333,27.8802342 L160.070333,27.8802342 Z" id="Shape" fill="#666666"></path>
                                <polygon id="Rectangle-path" fill="#F2F2F2" transform="translate(188.361794, 64.750755) rotate(0.190000) translate(-188.361794, -64.750755) " points="172.580028 44.5435424 204.167505 44.527669 204.14356 84.9579682 172.556083 84.9738416"></polygon>
                                <polygon id="Shape" fill="#F9CCEB" points="174.870981 121.779923 172.289792 119.582122 187.90507 106.325421 204.728564 114.25459 227.931806 104.018894 236.078112 110.938473 259.555948 98.3962514 261.50557 101.028953 235.556382 114.891408 227.236167 107.824274 204.673645 117.780391 188.545791 110.177397"></polygon>
                                <path d="M116.437254,81.9399249 L106.579309,81.9399249 C103.647324,81.9399249 101.27048,79.923269 101.27048,77.4355977 L101.27048,164.943803 L234.750905,164.943803 L234.750905,81.9399249 L116.437254,81.9399249 Z" id="Shape" fill="#4960AD"></path>
                                <g id="Group" opacity="0.5" transform="translate(100.684679, 84.650287)" fill="#FFFFFF">
                                    <path d="M2.17845032,2.40748524 C1.45419227,2.11069 0.753961268,1.77341788 0.0823783735,1.39789465 L1.08922516,0.100959058 C1.68977353,0.439462223 2.31667604,0.743035292 2.96562144,1.00959058 L2.17845032,2.40748524 Z" id="Shape"></path>
                                    <path d="M121.132822,3.8830407 L116.556245,3.8830407 L116.556245,2.32982442 L121.132822,2.32982442 L121.132822,3.8830407 Z M111.979669,3.8830407 L107.403093,3.8830407 L107.403093,2.32982442 L111.979669,2.32982442 L111.979669,3.8830407 Z M102.826516,3.8830407 L98.2499401,3.8830407 L98.2499401,2.32982442 L102.826516,2.32982442 L102.826516,3.8830407 Z M93.6733638,3.8830407 L89.0967875,3.8830407 L89.0967875,2.32982442 L93.6733638,2.32982442 L93.6733638,3.8830407 Z M84.5202112,3.8830407 L79.9436349,3.8830407 L79.9436349,2.32982442 L84.5202112,2.32982442 L84.5202112,3.8830407 Z M75.3670586,3.8830407 L70.7904823,3.8830407 L70.7904823,2.32982442 L75.3670586,2.32982442 L75.3670586,3.8830407 Z M66.213906,3.8830407 L61.6373297,3.8830407 L61.6373297,2.32982442 L66.213906,2.32982442 L66.213906,3.8830407 Z M57.0607534,3.8830407 L52.4841771,3.8830407 L52.4841771,2.32982442 L57.0607534,2.32982442 L57.0607534,3.8830407 Z M47.9076007,3.8830407 L43.3310244,3.8830407 L43.3310244,2.32982442 L47.9076007,2.32982442 L47.9076007,3.8830407 Z M38.7544481,3.8830407 L34.1778718,3.8830407 L34.1778718,2.32982442 L38.7544481,2.32982442 L38.7544481,3.8830407 Z M29.6012955,3.8830407 L25.0247192,3.8830407 L25.0247192,2.32982442 L29.6012955,2.32982442 L29.6012955,3.8830407 Z M20.4481429,3.8830407 L15.8715666,3.8830407 L15.8715666,2.32982442 L20.4481429,2.32982442 L20.4481429,3.8830407 Z M11.2949903,3.8830407 L9.51012556,3.8830407 C8.53204563,3.88202424 7.55563475,3.81450205 6.59026988,3.68112259 L6.90147707,2.12790631 C7.76324047,2.25257597 8.6359254,2.31492865 9.51012556,2.31429226 L11.2949903,2.31429226 L11.2949903,3.8830407 Z" id="Shape"></path>
                                    <polygon id="Shape" points="128.913001 5.01688859 127.082371 5.01688859 127.082371 3.85197638 125.709398 3.85197638 125.709398 2.2987601 128.913001 2.2987601"></polygon>
                                    <path d="M128.913001,69.1957853 L127.082371,69.1957853 L127.082371,65.1807213 L128.913001,65.1807213 L128.913001,69.1957853 Z M128.913001,61.1734233 L127.082371,61.1734233 L127.082371,57.1661252 L128.913001,57.1661252 L128.913001,61.1734233 Z M128.913001,53.1510612 L127.082371,53.1510612 L127.082371,49.1437632 L128.913001,49.1437632 L128.913001,53.1510612 Z M128.913001,45.1286991 L127.082371,45.1286991 L127.082371,41.1602315 L128.913001,41.1602315 L128.913001,45.1286991 Z M128.913001,37.106337 L127.082371,37.106337 L127.082371,33.099039 L128.913001,33.099039 L128.913001,37.106337 Z M128.913001,29.0839749 L127.082371,29.0839749 L127.082371,25.0766769 L128.913001,25.0766769 L128.913001,29.0839749 Z M128.913001,21.0616128 L127.082371,21.0616128 L127.082371,17.0853791 L128.913001,17.0853791 L128.913001,21.0616128 Z M128.913001,13.0392507 L127.082371,13.0392507 L127.082371,9.03195268 L128.913001,9.03195268 L128.913001,13.0392507 Z" id="Shape"></path>
                                    <polygon id="Shape" points="128.913001 75.9212118 125.709398 75.9212118 125.709398 74.3679956 127.082371 74.3679956 127.082371 73.2030834 128.913001 73.2030834"></polygon>
                                    <path d="M121.151128,75.9212118 L116.574552,75.9212118 L116.574552,74.3679956 L121.151128,74.3679956 L121.151128,75.9212118 Z M112.043741,75.9212118 L107.467165,75.9212118 L107.467165,74.3679956 L112.043741,74.3679956 L112.043741,75.9212118 Z M102.890588,75.9212118 L98.3140122,75.9212118 L98.3140122,74.3679956 L102.890588,74.3679956 L102.890588,75.9212118 Z M93.7832016,75.9212118 L89.2066253,75.9212118 L89.2066253,74.3679956 L93.7832016,74.3679956 L93.7832016,75.9212118 Z M84.630049,75.9212118 L80.0534727,75.9212118 L80.0534727,74.3679956 L84.630049,74.3679956 L84.630049,75.9212118 Z M75.4768964,75.9212118 L70.9003201,75.9212118 L70.9003201,74.3679956 L75.4768964,74.3679956 L75.4768964,75.9212118 Z M66.3695096,75.9212118 L61.7929333,75.9212118 L61.7929333,74.3679956 L66.3695096,74.3679956 L66.3695096,75.9212118 Z M57.2163569,75.9212118 L52.6397806,75.9212118 L52.6397806,74.3679956 L57.2163569,74.3679956 L57.2163569,75.9212118 Z M48.1089701,75.9212118 L43.5323938,75.9212118 L43.5323938,74.3679956 L48.1089701,74.3679956 L48.1089701,75.9212118 Z M38.9558175,75.9212118 L34.3792412,75.9212118 L34.3792412,74.3679956 L38.9558175,74.3679956 L38.9558175,75.9212118 Z M29.8484307,75.9212118 L25.2718543,75.9212118 L25.2718543,74.3679956 L29.8484307,74.3679956 L29.8484307,75.9212118 Z M20.695278,75.9212118 L16.1187017,75.9212118 L16.1187017,74.3679956 L20.695278,74.3679956 L20.695278,75.9212118 Z M11.5878912,75.9212118 L7.0113149,75.9212118 L7.0113149,74.3679956 L11.5878912,74.3679956 L11.5878912,75.9212118 Z" id="Shape"></path>
                                    <rect id="Rectangle-path" x="0.402738715" y="74.3679956" width="2.28828815" height="1.55321628"></rect>
                                </g>
                                <g id="Group" opacity="0.5" transform="translate(254.457642, 153.768412)" fill="#CCF1D6">
                                    <path d="M0.594954919,11.4239058 C6.29736899,6.38371892 14.7091162,2.69483025 23.9721067,1.16491221 C32.5303044,-0.248514605 42.0770425,0.256280686 49.4270241,3.43260798 C51.9624474,4.52762546 54.278195,5.94105228 57.2072038,6.45361365 C63.3215097,7.5175668 69.4449688,4.31794126 75.7697973,4.52762546 C84.9687157,4.83050264 88.5842109,11.3229467 97.9387329,11.260818 L0.594954919,11.4239058 Z" id="Shape"></path>
                                </g>
                                <g id="Group" opacity="0.5" transform="translate(0.000000, 156.874844)" fill="#CCF1D6">
                                    <path d="M68.5479599,8.15438548 C64.0909998,4.43272836 58.4113948,1.94205262 52.2553482,1.00959058 C46.2874927,0.0232982442 39.6331508,0.372771908 34.5073853,2.56280686 C32.7408269,3.33941501 31.1207189,4.31017518 29.0795658,4.66741493 C24.8233499,5.44402307 20.5488276,3.18409338 16.1461612,3.32388284 C9.73895437,3.53356704 7.1852248,8.0611925 0.695639598,8.02236209 L68.5479599,8.15438548 Z" id="Shape"></path>
                                </g>
                                <path d="M317.358107,165.192318 C317.358107,165.192318 324.332809,154.001394 332.167908,153.543196 C337.48589,153.240318 339.819944,155.87302 341.732953,157.045698 C343.270682,158.000926 347.224844,162.148014 350.703042,163.025581 C355.810501,164.338049 358.318465,158.769768 364.606681,158.754236 C369.942969,158.754236 375.590464,165.169019 375.590464,165.169019 L317.358107,165.192318 Z" id="Shape" fill="#CCF1D6"></path>
                            </g>
                        </g>
                    </g>
                </g>
            </g>
        </g>
    </g>
</svg>