<?xml version="1.0" encoding="UTF-8"?>
<svg width="381px" height="166px" viewBox="0 0 381 166" version="1.1" xmlns="http://www.w3.org/2000/svg" xmlns:xlink="http://www.w3.org/1999/xlink">
    <!-- Generator: Sketch 57 (83077) - https://sketch.com -->
    <title>upload</title>
    <desc>Created with Sketch.</desc>
    <defs>
        <polygon id="path-1" points="113.358529 40.2435013 238.260785 40.243113 238.260482 137.826287 113.358226 137.826675"></polygon>
        <filter x="-10.8%" y="-10.8%" width="121.6%" height="127.7%" filterUnits="objectBoundingBox" id="filter-2">
            <feOffset dx="0" dy="3" in="SourceAlpha" result="shadowOffsetOuter1"></feOffset>
            <feGaussianBlur stdDeviation="4" in="shadowOffsetOuter1" result="shadowBlurOuter1"></feGaussianBlur>
            <feColorMatrix values="0 0 0 0 0.266666698   0 0 0 0 0.266666698   0 0 0 0 0.266666698  0 0 0 0.0286741395 0" type="matrix" in="shadowBlurOuter1"></feColorMatrix>
        </filter>
    </defs>
    <g id="Page-1" stroke="none" stroke-width="1" fill="none" fill-rule="evenodd">
        <g id="fullpage" transform="translate(-275.000000, -5470.000000)">
            <g id="section-get_started-white" transform="translate(0.000000, 5149.000000)">
                <g id="section-get_started_content" transform="translate(120.000000, 71.000000)">
                    <g id="div-free_access" transform="translate(0.000000, 160.000000)">
                        <g id="upload" transform="translate(155.000000, 90.000000)">
                            <rect id="Rectangle" fill="#FFFFFF" x="0" y="0" width="381" height="166"></rect>
                            <g id="illustration-/-upload" transform="translate(57.000000, 0.000000)">
                                <g>
                                    <g id="Group" opacity="0.5" transform="translate(202.874160, 43.564019)" fill="#D2F0F9" fill-rule="nonzero">
                                        <path d="M60.4761553,12.5914067 C60.2023805,11.4179887 58.8335064,10.8699253 57.6260893,10.7504755 C56.4186721,10.6310258 55.1270166,10.7504755 54.1161557,10.0899888 C53.1052948,9.42950208 52.5507253,8.15068734 51.5398645,7.42696252 C49.7287388,6.12706842 47.1594674,7.0896927 45.0184079,6.45028533 C42.8773484,5.81087796 41.634832,3.85049712 39.9290042,2.5224972 C36.4817637,-0.0406308566 31.7373754,0.060592904 28.4023824,2.76842312 C27.0475481,3.92076167 25.9313892,5.52279332 24.1904621,5.93735414 C22.7864887,6.27462396 21.2842371,5.69845469 19.8170849,5.70548114 C15.9070189,5.70548114 13.0920522,9.82298354 9.22410541,10.3991528 C7.82013198,10.6169729 6.31788042,10.3218618 4.87880766,10.5396819 C3.10980114,10.7996607 1.4741721,11.0034279 0.526490035,12.5211421 L60.4761553,12.5914067 Z" id="Shape"></path>
                                    </g>
                                    <g id="Group" opacity="0.5" transform="translate(216.913894, 98.370365)" fill="#99E3AD" fill-rule="nonzero">
                                        <path d="M3.42569516,26.2508344 C-0.631718876,30.7950462 -0.440764709,37.7190063 3.86092692,42.0322515 C7.60953597,45.8546428 13.5694032,47.1475104 18.7219856,45.7000608 C23.8745681,44.2526111 28.1566871,40.2967172 30.5013227,35.4765693 C32.122912,32.1319769 32.8038391,27.94421 30.7961571,24.8104112 C29.3360247,22.5268135 26.7597335,21.2620516 24.3097999,20.1026866 C25.8682104,15.9781578 26.310462,11.2634067 24.6046343,7.19508952 C22.8988066,3.1267723 18.7149658,-0.0281058184 14.3275488,0.316190457 C9.62423784,0.681566097 6.01602613,4.70069813 3.84688719,8.89549153 C2.2590898,11.9841917 1.16700098,15.3038427 0.61072844,18.732528 C0.302695578,20.1767233 0.314676513,21.6709486 0.645827776,23.1100092 C1.00407876,24.5655572 2.09945849,25.7259886 3.53099317,26.166517 L3.42569516,26.2508344 Z" id="Shape"></path>
                                    </g>
                                    <path d="M233.466741,165.46598 C233.29875,165.462642 233.15568,165.342819 233.122768,165.177895 C231.185284,155.045747 232.898132,145.897303 234.702238,136.207823 C235.067271,134.254468 235.439324,132.265982 235.790317,130.22831 C237.896277,118.184967 233.256145,110.961771 233.214026,110.891507 C233.161323,110.814624 233.142027,110.719633 233.160551,110.628254 C233.179074,110.536876 233.233832,110.456924 233.312304,110.406681 C233.473369,110.300846 233.689558,110.344752 233.796675,110.505052 C233.845814,110.582343 238.605284,118.030384 236.485284,130.347759 C236.134291,132.392458 235.783297,134.380944 235.397205,136.341325 C233.600119,145.960542 231.887271,155.045747 233.817734,165.044392 C233.852166,165.23598 233.727495,165.420042 233.53694,165.458953 L233.466741,165.46598 Z" id="Shape" fill="#808080" fill-rule="nonzero"></path>
                                    <path d="M234.639059,139.425939 C234.503242,139.424914 234.380206,139.34555 234.323165,139.222172 C234.288066,139.144881 230.764092,131.570363 222.480649,129.385135 C222.295243,129.333797 222.185669,129.142645 222.234954,128.956521 C222.256103,128.865195 222.314275,128.786801 222.395512,128.740146 C222.47675,128.69349 222.573722,128.682784 222.663166,128.710596 C231.276543,131.008246 234.926873,138.877875 234.961973,138.955166 C235.041053,139.131746 234.962588,139.339087 234.786476,139.418912 C234.738271,139.430899 234.688183,139.433286 234.639059,139.425939 L234.639059,139.425939 Z" id="Shape" fill="#808080" fill-rule="nonzero"></path>
                                    <g id="Group" opacity="0.5" transform="translate(176.900652, 153.176710)" fill="#CCF1D6" fill-rule="nonzero">
                                        <path d="M71.9887374,12.1346871 C67.8651292,6.67320499 61.9954302,2.79194742 55.3586722,1.13828565 C49.2724474,-0.35132273 42.4912557,0.231873002 37.2754945,3.70996803 C35.4784085,4.90446532 33.8357596,6.44325888 31.7578789,7.00537524 C27.4125811,8.18581962 23.0602635,4.74988331 18.5675486,5.00283568 C12.0320523,5.37523777 7.16026447,11.5866236 0.540529769,11.5655443 L71.9887374,12.1346871 Z" id="Shape"></path>
                                    </g>
                                    <g id="Group" opacity="0.5" transform="translate(4.913907, 0.000000)" fill="#D2F0F9" fill-rule="nonzero">
                                        <path d="M49.7357586,12.4789834 C47.2577455,12.4789834 41.6488717,10.2234915 39.7113884,9.18357617 C37.773905,8.14366089 35.4292694,7.07563979 33.4847662,8.12258153 C33.1407927,8.30526935 32.7827795,8.56524817 32.3826471,8.41769262 C31.8701968,8.21392544 31.9193358,7.4761477 31.6806604,7.0124017 C31.3156273,6.35191497 30.3960247,6.26759751 29.6519188,6.39407369 C28.9280682,6.62762905 28.1551333,6.66400805 27.4125811,6.49947051 C26.5842368,6.18328005 26.1841044,5.27686741 25.7488726,4.5039574 C24.6502897,2.37805851 22.636584,0.875429573 20.287416,0.428613731 C17.9568201,0.0913439099 15.373509,1.34205283 14.5521846,3.54835958 C14.2222508,4.4266664 14.1731117,5.40334359 13.8150985,6.28165042 C13.4570853,7.15995725 12.6006615,7.95394662 11.7091384,7.78531171 C10.3964232,7.54641225 9.94715172,5.67737532 8.64145644,5.36118487 C7.33576115,5.04499441 6.45125789,6.4854176 5.73523145,7.57451807 C4.73139045,9.10628517 4.07152294,12.4930363 0.175496678,12.4930363 L49.7357586,12.4789834 Z" id="Shape"></path>
                                    </g>
                                    <path d="M61.1500626,164.742255 C61.1500626,164.742255 53.89152,151.019589 45.7484741,150.478552 C40.2097989,150.113176 37.7879448,153.289134 35.7943025,154.778742 C34.2007927,155.95216 30.0520512,161.039313 26.471919,162.121387 C21.1648994,163.723419 18.5535088,156.900731 12.0109927,156.879652 C6.46529763,156.879652 0.596688706,164.742255 0.596688706,164.742255 L61.1500626,164.742255 Z" id="Shape" fill="#CCF1D6" fill-rule="nonzero"></path>
                                    <path d="M36.5033091,123.356437 C36.5033091,123.356437 42.371918,126.110807 43.1090041,131.43686 C43.8460901,136.762912 42.7369511,139.16596 44.5761563,141.344161 C46.4153615,143.522362 51.9048976,147.949028 47.8754938,153.457769 C43.8460901,158.966509 39.4516533,156.760202 36.5033091,155.108985 C33.5549649,153.457769 31.3717862,146.845875 34.3060907,142.074912 C37.2403951,137.303949 38.5180109,133.818828 37.2403951,129.968331 C35.9627793,126.117834 32.4879451,122.625686 36.5033091,123.356437 Z" id="Shape" fill="#99E3AD" fill-rule="nonzero"></path>
                                    <path d="M40.2799976,164.91089 L40.2238387,164.91089 C40.0339053,164.878541 39.903608,164.701543 39.9290042,164.510382 C44.9552291,133.109156 37.5703289,126.911823 37.5001302,126.855611 C37.3606143,126.733326 37.3402108,126.523507 37.4535486,126.376587 C37.5668864,126.229668 37.7748529,126.19635 37.9283421,126.300522 C38.2442361,126.546447 45.7344344,132.666489 40.6239711,164.622805 C40.593553,164.789197 40.4489924,164.910269 40.2799976,164.91089 Z" id="Shape" fill="#808080" fill-rule="nonzero"></path>
                                    <path d="M184.41191,164.805493 L49.2513878,164.805493 C47.3826904,164.805493 45.8678118,163.289193 45.8678118,161.418742 L45.8678118,62.3457317 C45.8678118,60.4752807 47.3826904,58.9589806 49.2513878,58.9589806 L87.650061,58.9589806 C88.8377873,58.9589806 89.938154,59.5837673 90.5492661,60.603171 L94.5786699,67.3064087 C95.1915155,68.323116 96.2915632,68.9443064 97.477875,68.9435726 L184.41191,68.9435726 C186.280607,68.9435726 187.795485,70.4598727 187.795485,72.3303237 L187.795485,161.425768 C187.791614,163.293475 186.277869,164.805493 184.41191,164.805493 Z" id="Shape" fill="#001A7D" fill-rule="nonzero"></path>
                                    <polygon id="Rectangle-path" fill="#F2F2F2" fill-rule="nonzero" transform="translate(171.139879, 84.325585) rotate(-89.810000) translate(-171.139879, -84.325585) " points="108.688903 35.5341926 233.591159 35.5338042 233.590855 133.116978 108.688599 133.117367"></polygon>
                                    <g id="Rectangle-path" fill-rule="nonzero" transform="translate(175.809505, 89.034894) rotate(-89.810000) translate(-175.809505, -89.034894) ">
                                        <use fill="black" fill-opacity="1" filter="url(#filter-2)" xlink:href="#path-1"></use>
                                        <use fill="#FFFFFF" xlink:href="#path-1"></use>
                                    </g>
                                    <polygon id="Rectangle-path" fill="#F2F2F2" fill-rule="nonzero" transform="translate(168.817918, 72.156631) rotate(0.190000) translate(-168.817918, -72.156631) " points="144.444934 70.7477506 193.190892 70.7479022 193.190901 73.5655105 144.444943 73.5653588"></polygon>
                                    <polygon id="Rectangle-path" fill="#F2F2F2" fill-rule="nonzero" transform="translate(191.725168, 92.876293) rotate(0.190000) translate(-191.725168, -92.876293) " points="176.253376 91.467441 207.196951 91.4675373 207.196959 94.2851456 176.253385 94.2850493"></polygon>
                                    <polygon id="Rectangle-path" fill="#F9CCEB" fill-rule="nonzero" transform="translate(191.656752, 113.526697) rotate(0.190000) translate(-191.656752, -113.526697) " points="176.18496 112.117845 207.128535 112.117941 207.128544 114.935549 176.184969 114.935453"></polygon>
                                    <polygon id="Rectangle-path" fill="#F2F2F2" fill-rule="nonzero" transform="translate(175.680374, 123.890327) rotate(0.190000) translate(-175.680374, -123.890327) " points="144.266464 122.576282 207.094275 122.576477 207.094284 125.204371 144.266472 125.204176"></polygon>
                                    <polygon id="Rectangle-path" fill="#F2F2F2" fill-rule="nonzero" transform="translate(170.774754, 134.115064) rotate(0.190000) translate(-170.774754, -134.115064) " points="144.232632 132.706178 197.316868 132.706343 197.316876 135.523951 144.232641 135.523786"></polygon>
                                    <polygon id="Rectangle-path" fill="#F2F2F2" fill-rule="nonzero" transform="translate(175.920446, 51.427691) rotate(0.190000) translate(-175.920446, -51.427691) " points="144.506536 50.1136462 207.334348 50.1138417 207.334356 52.7417357 144.506544 52.7415402"></polygon>
                                    <polygon id="Rectangle-path" fill="#F2F2F2" fill-rule="nonzero" transform="translate(175.885621, 61.939093) rotate(0.190000) translate(-175.885621, -61.939093) " points="144.471711 60.625048 207.299523 60.6252435 207.299531 63.2531375 144.471719 63.252942"></polygon>
                                    <polygon id="Rectangle-path" fill="#F2F2F2" fill-rule="nonzero" transform="translate(155.588377, 103.081661) rotate(0.190000) translate(-155.588377, -103.081661) " points="144.335494 91.3474468 166.841188 91.3475169 166.841261 114.815875 144.335567 114.815805"></polygon>
                                    <polygon id="Rectangle-path" fill="#F2F2F2" fill-rule="nonzero" transform="translate(191.690948, 103.205008) rotate(0.190000) translate(-191.690948, -103.205008) " points="176.219157 101.796156 207.162731 101.796252 207.16274 104.613861 176.219165 104.613764"></polygon>
                                    <path d="M135.427277,36.2424529 L135.427277,36.2424529 C134.836512,36.2424647 134.270146,36.0066066 133.853733,35.587164 C133.437319,35.1677215 133.20526,34.5993474 133.208999,34.0080403 L133.208999,24.6206969 L133.910985,24.6206969 L133.910985,34.0080403 C133.904923,34.4139845 134.064659,34.804818 134.353237,35.0901143 C134.636759,35.3777531 135.023587,35.5397153 135.427277,35.5398074 L135.427277,35.5398074 C136.265844,35.5398163 136.946723,34.8614389 136.950588,34.0220932 L136.992707,21.8171416 C136.98891,20.4582184 135.893359,19.3553732 134.535754,19.3438295 L134.535754,19.3438295 C133.179265,19.3476649 132.079482,20.4453434 132.07178,21.8030886 L131.369793,21.8030886 C131.377523,20.0584269 132.79271,18.6482105 134.535754,18.6482105 L134.535754,18.6482105 C136.282657,18.6559475 137.694694,20.0756085 137.694694,21.824168 L137.652575,34.0291197 C137.644878,35.2549249 136.651951,36.2456487 135.427277,36.2494793 L135.427277,36.2424529 Z" id="Shape" fill="#666666" fill-rule="nonzero"></path>
                                    <path d="M186.026479,164.742267 L48.1352289,164.742267 C47.4954422,164.744443 46.8871087,164.464716 46.4719649,163.977446 C46.0568211,163.490175 45.876934,162.844737 45.9801297,162.212731 L63.5929763,78.4573921 C63.7619779,77.3971522 64.6754324,76.6164522 65.7480756,76.6164522 L203.576147,76.6164522 C204.216336,76.6146384 204.825063,76.8941644 205.24125,77.3810724 C205.657436,77.8679804 205.839135,78.5131956 205.738266,79.1459847 L188.132439,162.901324 C187.963995,163.941986 187.079378,164.715277 186.026479,164.742267 Z" id="Shape" fill="#394C9F" fill-rule="nonzero"></path>
                                    <path d="M126.877079,138.336838 C126.778901,138.343124 126.680422,138.343124 126.582244,138.336838 C125.784388,138.167882 125.270995,137.38767 125.430986,136.587251 L130.471251,111.720628 C130.667509,110.955903 131.428094,110.479296 132.201081,110.636661 C132.974067,110.794026 133.488227,111.530147 133.370456,112.31085 L128.323171,137.121262 C128.197714,137.82286 127.589154,138.334412 126.877079,138.336838 Z" id="Shape" fill="#FFFFFF" fill-rule="nonzero"></path>
                                    <path d="M139.428601,124.087188 C138.950236,124.087188 138.500982,123.857227 138.221184,123.46886 L131.643568,114.207993 L121.176946,123.005114 C120.552755,123.530936 119.620885,123.450717 119.095556,122.82594 C118.570227,122.201163 118.650371,121.268418 119.274562,120.742596 L130.969661,110.90556 C131.283987,110.637151 131.697207,110.514601 132.10688,110.56829 C132.515908,110.622747 132.884271,110.843972 133.12476,111.179591 L140.628998,121.719273 C140.855533,122.03876 140.945833,122.435306 140.879992,122.821497 C140.814151,123.207688 140.597575,123.551817 140.278005,123.778024 C140.036656,123.971976 139.738042,124.080665 139.428601,124.087188 L139.428601,124.087188 Z" id="Shape" fill="#FFFFFF" fill-rule="nonzero"></path>
                                </g>
                            </g>
                        </g>
                    </g>
                </g>
            </g>
        </g>
    </g>
</svg>