<?xml version="1.0" encoding="UTF-8"?>
<svg width="400px" height="300px" viewBox="0 0 400 300" version="1.1" xmlns="http://www.w3.org/2000/svg" xmlns:xlink="http://www.w3.org/1999/xlink">
    <!-- Generator: Sketch 57.1 (83088) - https://sketch.com -->
    <title>biology</title>
    <desc>Created with Sketch.</desc>
    <g id="9-3" stroke="none" stroke-width="1" fill="none" fill-rule="evenodd">
        <g id="biology" fill-rule="nonzero">
            <g id="background" fill="#CDD2EA">
                <rect id="Rectangle" x="0" y="0" width="400" height="300"></rect>
            </g>
            <g id="artwork" transform="translate(155.000000, 79.000000)">
                <path d="M29.7523092,3.413786 L56.9323092,3.413786 L56.9323092,58.263786 C56.9323092,61.235078 54.5236012,63.643786 51.5523092,63.643786 L35.1223092,63.643786 C32.1510173,63.643786 29.7423092,61.235078 29.7423092,58.263786 L29.7423092,3.413786 L29.7523092,3.413786 Z" id="Path" fill="#FFFFFF" transform="translate(43.337309, 33.528786) rotate(-135.000000) translate(-43.337309, -33.528786) "></path>
                <rect id="Rectangle" fill="#6776C0" transform="translate(67.412440, 9.452322) rotate(-135.000000) translate(-67.412440, -9.452322) " x="60.4824401" y="5.50732153" width="13.86" height="7.89"></rect>
                <rect id="Rectangle" fill="#6776C0" transform="translate(71.522951, 5.342322) rotate(-135.000000) translate(-71.522951, -5.342322) " x="66.7879512" y="3.47232153" width="9.47" height="3.74"></rect>
                <rect id="Rectangle" fill="#6776C0" transform="translate(22.157991, 54.955916) rotate(-45.000000) translate(-22.157991, -54.955916) " x="19.9779907" y="39.295916" width="4.36" height="31.32"></rect>
                <circle id="Oval" fill="#6776C0" cx="48.88" cy="39.39" r="13.22"></circle>
                <circle id="Oval" fill="#3348AB" cx="48.88" cy="39.39" r="5.24"></circle>
                <path d="M45.86,106.41 C60.1661788,106.447687 72.5574535,96.4928968 75.603724,82.5147564 C78.65,68.536616 71.5245607,54.3285296 58.5,48.41 C60.8147431,45.9616826 62.1031011,42.719315 62.1,39.35 C62.1013954,37.9037015 61.8614332,36.4673083 61.39,35.1 C79.8502516,42.108134 91.3303468,60.6108516 89.4116936,80.2631696 C87.4930405,99.9154876 72.6510015,115.848379 53.183852,119.153666 C33.7167025,122.458953 14.4475925,112.317723 6.15,94.4 L21.7,94.4 C27.5080542,101.868907 36.3993776,106.288807 45.86,106.41 L45.86,106.41 Z" id="Path" fill="#FFFFFF"></path>
                <rect id="Rectangle" fill="#6776C0" x="0.68" y="92.25" width="26.88" height="4.36"></rect>
                <path d="M0.69,119.7 L89.62,119.7 L89.62,129 C89.62,132.865993 86.4859932,136 82.62,136 L7.68,136 C3.81400675,136 0.68,132.865993 0.68,129 L0.68,119.7 L0.69,119.7 Z" id="Path" fill="#3348AB" transform="translate(45.150000, 127.850000) rotate(-180.000000) translate(-45.150000, -127.850000) "></path>
                <path d="M87.46,92.54 C87.46,92.54 96.78,109.08 92.94,132.75 C92.94,132.75 107.82,104.73 87.46,92.54 Z" id="Path" fill="#E00099"></path>
                <path d="M71.79,102.78 L90.34,127.78 C90.34,127.78 86.5,102.32 71.79,102.78 Z" id="Path" fill="#3348AB"></path>
                <path d="M96.36,121.06 L114.15,103.13 C114.15,103.13 97.74,103.44 96.36,121.06 Z" id="Path" fill="#3348AB"></path>
                <path d="M92.81,129.14 L107.39,90.05 C107.39,90.05 84.1,108.69 92.81,129.14 Z" id="Path" fill="#3348AB"></path>
                <path d="M75.09,89 C75.09,89 89.6,110 89.16,130.83 C89.16,130.83 100.11,99.36 75.09,89 Z" id="Path" fill="#E00099"></path>
                <path d="M77.56,115.81 L105.61,115.81 C106.28931,115.81 106.840078,116.36069 106.840078,117.04 L106.840078,126.68 C106.850636,129.413349 105.772264,132.038395 103.843236,133.974929 C101.914209,135.911463 99.2933701,137 96.56,137 L86.62,137 C80.9425128,137 76.34,132.397487 76.34,126.72 L76.34,117 C76.3614485,116.340221 76.8998913,115.815018 77.56,115.81 L77.56,115.81 Z" id="Path" fill="#6776C0"></path>
            </g>
        </g>
    </g>
</svg>