<?xml version="1.0" encoding="UTF-8"?>
<svg width="400px" height="300px" viewBox="0 0 400 300" version="1.1" xmlns="http://www.w3.org/2000/svg" xmlns:xlink="http://www.w3.org/1999/xlink">
    <!-- Generator: Sketch 57.1 (83088) - https://sketch.com -->
    <title>programming</title>
    <desc>Created with Sketch.</desc>
    <g id="9-3" stroke="none" stroke-width="1" fill="none" fill-rule="evenodd">
        <g id="programming" fill-rule="nonzero">
            <g id="background" fill="#CDD2EA">
                <rect id="Rectangle" x="0" y="0" width="400" height="300"></rect>
            </g>
            <g id="artwork" transform="translate(119.000000, 104.000000)">
                <path d="M144.35,101 L17.65,101 C12.2951601,101.04815 6.99126177,99.9573737 2.09,97.8 L1.56,97.63 C0.940944058,97.350414 0.547740665,96.7291526 0.559721377,96.05 L0.559721377,92.85 C0.559721377,91.85 1.33,91.34 2.32,91.34 L158.81,91.34 C159.492493,91.275374 160.170689,91.5008409 160.678641,91.9612312 C161.186592,92.4216214 161.477434,93.0744586 161.48039,93.76 L161.48039,96.05 C161.494474,96.7472862 161.104843,97.3901785 160.48,97.7 L159.94,97.8 C155.029877,99.9627189 149.715052,101.053639 144.35,101 L144.35,101 Z" id="Path" fill="#6776C0"></path>
                <path d="M16.82,11 L144.61,11 C147.526063,11 149.89,13.3639365 149.89,16.28 L149.89,91.34 L12.11,91.34 L12.11,15.71 C12.11,13.1087388 14.2187388,11 16.82,11 Z" id="Path" fill="#6776C0"></path>
                <rect id="Rectangle" fill="#FFFFFF" x="17.9" y="18.08" width="126.19" height="73.26"></rect>
                <path d="M0.67,97.14 C0.85,97.14 1.16,97.66 1.54,97.84 L2.09,97.84 C6.99371766,99.9853893 12.2978766,101.062584 17.65,101 L144.35,101 C149.70484,101.04815 155.008738,99.9573737 159.91,97.8 L160.46,97.8 C160.84,97.62 161.14,97.17 161.33,97.17 L0.67,97.14 Z" id="Path" fill="#3348AB"></path>
                <path d="M33.8,6 L129,6 L129,65.83 C129,67.0284579 128.028458,68 126.83,68 L36,68 C34.8015421,68 33.83,67.0284579 33.83,65.83 L33.83,6 L33.8,6 Z" id="Path" fill="#3348AB"></path>
                <path d="M33.8,6 L129,6 L129,2.1 C129,0.940202025 128.059798,0 126.9,0 L35.9,0 C34.740202,0 33.8,0.940202025 33.8,2.1 L33.8,6 Z" id="Path" fill="#FFFFFF"></path>
                <circle id="Oval" fill="#E00099" cx="37" cy="3" r="1"></circle>
                <circle id="Oval" fill="#E00099" cx="40" cy="3" r="1"></circle>
                <circle id="Oval" fill="#E00099" cx="43" cy="3" r="1"></circle>
                <polygon id="Path" fill="#FFFFFF" points="47.17 19.17 45.05 21.29 44.34 22 45.05 22.71 47.17 24.83 47.88 24.12 45.76 22 47.88 19.88"></polygon>
                <rect id="Rectangle" fill="#FFFFFF" x="51.96" y="21.22" width="26.04" height="1.39"></rect>
                <polygon id="Path" fill="#FFFFFF" points="86.17 36.83 88.29 34.71 89 34 88.29 33.29 86.17 31.17 85.46 31.88 87.59 34 85.46 36.12"></polygon>
                <rect id="Rectangle" fill="#FFFFFF" x="51.96" y="27.22" width="38.78" height="1.39"></rect>
                <rect id="Rectangle" fill="#FFFFFF" x="93.39" y="27.22" width="10.61" height="1.39"></rect>
                <rect id="Rectangle" fill="#FFFFFF" x="63.96" y="33.22" width="18.04" height="1.39"></rect>
                <rect id="Rectangle" fill="#FFFFFF" transform="translate(56.480000, 33.925000) rotate(180.000000) translate(-56.480000, -33.925000) " x="51.96" y="33.23" width="9.04" height="1.39"></rect>
                <polygon id="Path" fill="#FFFFFF" points="47.17 44.17 45.05 46.29 44.34 47 45.05 47.71 47.17 49.83 47.88 49.12 45.76 47 47.88 44.88"></polygon>
                <rect id="Rectangle" fill="#FFFFFF" x="51.96" y="46.22" width="26.04" height="1.39"></rect>
                <polygon id="Path" fill="#FFFFFF" points="110.17 55.83 112.29 53.71 113 53 112.29 52.29 110.17 50.17 109.46 50.88 111.59 53 109.46 55.12"></polygon>
                <rect id="Rectangle" fill="#FFFFFF" x="52" y="52.22" width="32.74" height="1.39"></rect>
                <rect id="Rectangle" fill="#FFFFFF" x="81.39" y="46.22" width="10.61" height="1.39"></rect>
                <rect id="Rectangle" fill="#FFFFFF" x="87.96" y="52.22" width="18.04" height="1.39"></rect>
            </g>
        </g>
    </g>
</svg>