<?xml version="1.0" encoding="UTF-8"?>
<svg width="400px" height="300px" viewBox="0 0 400 300" version="1.1" xmlns="http://www.w3.org/2000/svg" xmlns:xlink="http://www.w3.org/1999/xlink">
    <!-- Generator: Sketch 57.1 (83088) - https://sketch.com -->
    <title>economics</title>
    <desc>Created with Sketch.</desc>
    <g id="9-3" stroke="none" stroke-width="1" fill="none" fill-rule="evenodd">
        <g id="economics" fill-rule="nonzero">
            <g id="background" fill="#CDD2EA">
                <rect id="Rectangle" x="0" y="0" width="400" height="300"></rect>
            </g>
            <g id="artwork" transform="translate(104.000000, 88.000000)">
                <polygon id="Path" fill="#3348AB" points="69.38 68.77 88 68.77 88 121.08 69.38 121.08"></polygon>
                <polygon id="Path" fill="#3348AB" points="94.24 46.17 112.83 46.17 112.83 121.08 94.24 121.08"></polygon>
                <polygon id="Path" fill="#3348AB" points="119.85 75.36 138.44 75.36 138.44 121.08 119.85 121.08"></polygon>
                <polygon id="Path" fill="#3348AB" points="146.86 48.33 165.45 48.33 165.45 121.08 146.86 121.08"></polygon>
                <path d="M161.09,17.12 L164,21.5 L128.76,43.79 L104,26.56 L58.3,45 C58.2931586,45.2715919 58.2664204,45.5423171 58.22,45.81 C58.12,46.36 58.06,46.91 57.99,47.46 L103.68,29 L128.68,46.37 L165.17,23.3 L168.44,28.3 L170.44,19.01 L161.09,17.12 Z" id="Path" fill="#E00099"></path>
                <rect id="Rectangle" fill="#3348AB" x="28.57" y="25.69" width="23.21" height="2.95" rx="1.47"></rect>
                <path d="M30,23.22 L50.58,23.22 L59.26,8.75 C59.6411137,8.11238857 59.6063074,7.30915501 59.171467,6.70690107 C58.7366266,6.10464713 57.9851435,5.81886981 57.26,5.98 C54.184597,6.71671422 51.0147686,6.97974253 47.86,6.76 C38.26,6.22 37.67,0.86 30.03,1 C27.5973453,1.02781881 25.218461,1.71935492 23.15,3 C21.55,4.09 20.34,5.58 21.28,7.28 L30,23.22 Z" id="Path" fill="#FFFFFF"></path>
                <rect id="Rectangle" fill="#3348AB" x="28.57" y="22.75" width="23.21" height="2.95" rx="1.47"></rect>
                <path d="M78,81.44 L76.77,77.88 L66.4,47.68 L66.4,47.68 L64.15,41.13 C61.610622,33.799324 54.9480675,28.6863837 47.21,28.13 C46.75,28.13 46.28,28.13 45.81,28.13 L34.61,28.13 C34.14,28.13 33.61,28.13 33.2,28.13 C25.4619325,28.6863837 18.799378,33.799324 16.26,41.13 L14,47.65 L14,47.65 L3.62,77.85 L2.4,81.41 C-0.862723017,90.9154602 0.667350859,101.411575 6.50794644,109.589996 C12.348542,117.768417 21.7801676,122.621662 31.83,122.62 L48.58,122.62 C58.6206585,122.615115 68.0416871,117.764534 73.8784526,109.59465 C79.7152182,101.424765 81.2500636,90.9401017 78,81.44 L78,81.44 Z" id="Path" fill="#FFFFFF"></path>
                <path d="M49.19,79.24 C48.6513777,78.3106473 47.9179053,77.5089448 47.04,76.89 C46.1206749,76.2501179 45.1090102,75.7544022 44.04,75.42 C43.04,75.12 42.04,74.86 41.04,74.64 L41.04,62.79 C42.5196069,62.8482186 43.9154013,63.4921547 44.92,64.58 C45.8395067,65.6147746 46.4098113,66.9128297 46.55,68.29 C46.6257281,68.9523131 47.1833967,69.4542148 47.85,69.46 L47.85,69.46 C48.2187268,69.4593081 48.5698139,69.3020663 48.8158466,69.0274251 C49.0618794,68.7527839 49.1797098,68.3865829 49.14,68.02 C49.0521266,67.267165 48.8603004,66.5301485 48.57,65.83 C48.1496746,64.7759853 47.512579,63.8220453 46.7,63.03 C45.1708674,61.5639154 43.1568989,60.7099358 41.04,60.63 L41.04,58.54 C41.04,57.9214411 40.5385589,57.42 39.92,57.42 L39.92,57.42 C39.3014411,57.42 38.8,57.9214411 38.8,58.54 L38.8,60.61 C37.7207332,60.6227737 36.6504907,60.8084624 35.63,61.16 C34.6213025,61.4987464 33.6923481,62.0397858 32.9,62.75 C32.1170251,63.4480033 31.4900501,64.3032789 31.06,65.26 C30.5985555,66.3014622 30.3699045,67.431066 30.39,68.57 C30.3490744,69.7837873 30.5850376,70.9909613 31.08,72.1 C31.5139421,73.0057008 32.1503397,73.7994871 32.94,74.42 C33.7557506,75.058278 34.6808103,75.5428331 35.67,75.85 C36.67,76.18 37.72,76.45 38.8,76.69 L38.8,88.79 C36.9817518,88.6484101 35.2764437,87.8525997 34,86.55 C32.9689934,85.3294499 32.3650154,83.805459 32.28,82.21 C32.2330258,81.5643747 31.6973224,81.0635138 31.05,81.06 L31,81.06 C30.649244,81.0583533 30.3141991,81.2053355 30.0778733,81.4645316 C29.8415475,81.7237276 29.7260516,82.0708868 29.76,82.42 C29.8757428,84.5008805 30.6655084,86.4875797 32.01,88.08 C33.4366667,89.6266667 35.7033333,90.56 38.81,90.88 L38.81,93.15 C38.81,93.7685589 39.3114411,94.27 39.93,94.27 L39.93,94.27 C40.5485589,94.27 41.05,93.7685589 41.05,93.15 L41.05,90.92 C42.0665799,90.883002 43.0744789,90.7183785 44.05,90.43 C45.1351951,90.1078637 46.1520436,89.5892709 47.05,88.9 C48.9469678,87.458442 50.0338119,85.191702 49.97,82.81 C50.0263997,81.5722882 49.7574672,80.3414048 49.19,79.24 Z M36.76,73.55 C36.076933,73.3520919 35.4290811,73.0484113 34.84,72.65 C34.2816699,72.2718106 33.8193907,71.7684398 33.49,71.18 C33.1224777,70.4601076 32.9468214,69.6575995 32.98,68.85 C32.9599096,67.9117521 33.1194418,66.9783189 33.45,66.1 C33.7276514,65.3731234 34.1730793,64.7221134 34.75,64.2 C35.3083208,63.7109476 35.9621269,63.3431816 36.67,63.12 C37.3660129,62.9001552 38.0901951,62.7822651 38.82,62.77 L38.82,74.11 C38.12,73.94 37.43,73.75 36.76,73.55 Z M46.84,85.55 C46.4643406,86.2750736 45.9354453,86.9097479 45.29,87.41 C44.6371739,87.9045069 43.8928443,88.264776 43.1,88.47 C42.4467121,88.6463326 41.7760145,88.7502908 41.1,88.78 L41.1,77.18 C41.73,77.35 42.37,77.53 43.02,77.75 C43.7952737,77.9904278 44.5376373,78.3263389 45.23,78.75 C45.8755787,79.1654158 46.4245842,79.7144213 46.84,80.36 C47.2820587,81.0987463 47.5008614,81.9496457 47.47,82.81 C47.4907811,83.7678723 47.2743566,84.7160178 46.84,85.57 L46.84,85.55 Z" id="Shape" fill="#3348AB"></path>
            </g>
        </g>
    </g>
</svg>