<?xml version="1.0" encoding="UTF-8"?>
<svg width="400px" height="300px" viewBox="0 0 400 300" version="1.1" xmlns="http://www.w3.org/2000/svg" xmlns:xlink="http://www.w3.org/1999/xlink">
    <!-- Generator: Sketch 57.1 (83088) - https://sketch.com -->
    <title>corporateFinance</title>
    <desc>Created with Sketch.</desc>
    <g id="9-3" stroke="none" stroke-width="1" fill="none" fill-rule="evenodd">
        <g id="corporateFinance" fill-rule="nonzero">
            <g id="background" fill="#CDD2EA">
                <rect id="Rectangle" x="0" y="0" width="400" height="300"></rect>
            </g>
            <g id="artwork" transform="translate(112.000000, 89.000000)">
                <path d="M2.29,25.91 L136.29,25.91 L136.29,105.33 C136.29,107.086266 134.866266,108.51 133.11,108.51 L5.46,108.51 C3.7037345,108.51 2.28,107.086266 2.28,105.33 L2.28,25.91 L2.29,25.91 Z" id="Path" fill="#FFFFFF"></path>
                <path d="M136.34,59.93 L136.34,25.39 L136.28,24.51 L2.34,24.51 L2.34,25.39 L2.34,59.93 C2.46438448,59.9863786 2.59543675,60.0267024 2.73,60.05 L47.24,69.05 C61.8391299,72.0000338 76.8808701,72.0000338 91.48,69.05 L135.99,60.05 C136.110384,60.0217965 136.227637,59.9815955 136.34,59.93 L136.34,59.93 Z" id="Path" fill="#FAFAFA"></path>
                <rect id="Rectangle" fill="#6776C0" x="108.18" y="55.66" width="9.99" height="17.85" rx="1.43"></rect>
                <rect id="Rectangle" fill="#3348AB" x="112.36" y="59.72" width="1.62" height="9.74"></rect>
                <rect id="Rectangle" fill="#6776C0" x="20.46" y="55.66" width="9.99" height="17.85" rx="1.43"></rect>
                <rect id="Rectangle" fill="#3348AB" x="24.64" y="59.72" width="1.62" height="9.74"></rect>
                <path d="M135.94,55.85 L91.43,64.85 C76.8308701,67.8000338 61.7891299,67.8000338 47.19,64.85 L2.68,55.85 C1.15187973,55.538389 0.0885714342,54.1462664 0.19,52.59 L1.34,15.59 C1.38298544,14.3439138 2.40318121,13.3546331 3.65,13.35 L135,13.35 C136.246819,13.3546331 137.267015,14.3439138 137.31,15.59 L138.46,52.59 C138.559068,54.1556818 137.480141,55.5514363 135.94,55.85 L135.94,55.85 Z" id="Path" fill="#FFFFFF"></path>
                <path d="M93.29,13.31 L89.09,13.31 L89.09,4.14 L49.46,4.21 L49.54,13.31 L45.3399878,13.31 L45.3399878,4.14 C45.3373446,3.04465492 45.7699238,1.99311783 46.5425744,1.21671652 C47.3152249,0.44031522 48.3646549,0.00264895643 49.46,-1.42108547e-14 L89.16,-1.42108547e-14 C91.438655,0.00549738234 93.2845026,1.85134496 93.29,4.13 L93.29,13.31 Z" id="Path" fill="#3348AB"></path>
                <rect id="_Rectangle_" fill="#3348AB" x="95.38" y="87.51" width="80.44" height="34.47"></rect>
                <path d="M174.09,114 L174.09,95.44 C170.728608,95.3581034 168.067345,92.5716045 168.14,89.21 L103.05,89.21 C103.08751,90.8337944 102.474818,92.4052953 101.348114,93.5751898 C100.22141,94.7450842 98.6740565,95.4164298 97.05,95.44 L97.05,114 C98.6740565,114.02357 100.22141,114.694916 101.348114,115.86481 C102.474818,117.034705 103.08751,118.606206 103.05,120.23 L168.14,120.23 C168.067345,116.868396 170.728608,114.081897 174.09,114 Z" id="_Path_" fill="#6776C0"></path>
                <circle id="_Path_2" fill="#FFFFFF" cx="135.49" cy="104.83" r="12.66"></circle>
                <circle id="_Path_3" fill="#FFFFFF" cx="161.08" cy="104.7" r="5.65"></circle>
                <circle id="_Path_4" fill="#FFFFFF" cx="109.89" cy="104.96" r="5.65"></circle>
                <path d="M135.51,102.66 L135.51,106.84 C135.736708,105.455889 135.736708,104.044111 135.51,102.66 Z" id="Path" fill="#CCCCCC"></path>
                <path d="M139.49,106.17 C139.266293,105.775183 138.959153,105.433916 138.59,105.17 C138.203966,104.900472 137.77908,104.691401 137.33,104.55 C136.92,104.43 136.51,104.32 136.09,104.23 L136.09,99.23 C136.709223,99.2505593 137.293691,99.5211464 137.71,99.98 C138.101791,100.408308 138.34393,100.952242 138.4,101.53 C138.425901,101.808552 138.660249,102.021202 138.94,102.02 L138.94,102.02 C139.096213,102.021319 139.245343,101.954923 139.34889,101.837952 C139.452438,101.720981 139.500256,101.5649 139.48,101.41 C139.442699,101.096983 139.361921,100.790699 139.24,100.5 C138.875328,99.6056409 138.148493,98.9078789 137.24,98.58 C136.857383,98.4267434 136.451738,98.3388536 136.04,98.32 L136.04,97.45 C136.04,97.1904262 135.829574,96.98 135.57,96.98 L135.57,96.98 C135.310426,96.98 135.1,97.1904262 135.1,97.45 L135.1,98.32 C134.650936,98.3207283 134.205027,98.3950465 133.78,98.54 C133.357855,98.6888353 132.967666,98.916163 132.63,99.21 C132.310454,99.4898152 132.048856,99.8295535 131.86,100.21 C131.67139,100.645421 131.576012,101.115501 131.58,101.59 C131.56327,102.098935 131.662435,102.605015 131.87,103.07 C132.053036,103.456799 132.319405,103.798297 132.65,104.07 C132.993051,104.331066 133.378761,104.530688 133.79,104.66 C134.220213,104.802356 134.657456,104.922514 135.1,105.02 L135.1,110.08 C134.341692,110.018472 133.631275,109.684576 133.1,109.14 C132.6669,108.629542 132.416976,107.988891 132.39,107.32 C132.364515,107.050765 132.14041,106.843899 131.87,106.84 L131.87,106.84 C131.723967,106.842338 131.585371,106.904834 131.486937,107.012732 C131.388504,107.12063 131.338959,107.264366 131.35,107.41 C131.404949,108.281293 131.737927,109.111985 132.3,109.78 C133.070341,110.50634 134.081575,110.922941 135.14,110.95 L135.14,111.95 C135.14,112.209574 135.350426,112.42 135.61,112.42 L135.61,112.42 C135.869574,112.42 136.08,112.209574 136.08,111.95 L136.08,111.02 C136.507375,111.005394 136.930989,110.934792 137.34,110.81 C137.796766,110.67845 138.224357,110.461261 138.6,110.17 C139.391508,109.568822 139.84551,108.623604 139.82,107.63 C139.838723,107.122927 139.724986,106.619728 139.49,106.17 Z M134.29,103.79 C134.002523,103.704534 133.729488,103.576443 133.48,103.41 C133.248942,103.252397 133.057316,103.043661 132.92,102.8 C132.764593,102.490473 132.692232,102.145894 132.71,101.8 C132.700531,101.408135 132.764989,101.017995 132.9,100.65 C133.019039,100.347283 133.207417,100.076705 133.45,99.86 C133.681147,99.6518335 133.953812,99.4950515 134.25,99.4 C134.542309,99.3129408 134.845058,99.2658466 135.15,99.26 L135.15,104 L134.29,103.79 Z M138.51,108.79 C138.349686,109.092207 138.128344,109.357818 137.86,109.57 C137.585113,109.77551 137.272526,109.925008 136.94,110.01 C136.663242,110.088817 136.377665,110.132494 136.09,110.14 L136.09,105.28 L136.89,105.52 C137.215654,105.626712 137.52776,105.771019 137.82,105.95 C138.086441,106.129725 138.314242,106.360926 138.49,106.63 C138.676036,106.929679 138.769924,107.277412 138.76,107.63 C138.77756,108.041337 138.691601,108.450503 138.51,108.82 L138.51,108.79 Z" id="Shape" fill="#E00099"></path>
            </g>
        </g>
    </g>
</svg>