<?xml version="1.0" encoding="UTF-8"?>
<svg width="400px" height="300px" viewBox="0 0 400 300" version="1.1" xmlns="http://www.w3.org/2000/svg" xmlns:xlink="http://www.w3.org/1999/xlink">
    <!-- Generator: Sketch 57.1 (83088) - https://sketch.com -->
    <title>psychology</title>
    <desc>Created with Sketch.</desc>
    <g id="9-3" stroke="none" stroke-width="1" fill="none" fill-rule="evenodd">
        <g id="psychology" fill-rule="nonzero">
            <g id="background" fill="#CDD2EA">
                <rect id="Rectangle" x="0" y="0" width="400" height="300"></rect>
            </g>
            <g id="artwork" transform="translate(155.000000, 92.000000)">
                <path d="M9.92,40.43 L9.92,39 C9.92,17.4608948 27.3808948,0 48.92,0 L50.42,0 C60.8734635,0.00785559599 70.8932956,4.17902308 78.2643419,11.5913532 C85.6353881,19.0036833 89.7505285,29.0466557 89.7004599,39.5 C89.62,47.85 87.63,54.19 83.31,62.84 C83.01,63.43 81.45,66.5 81.03,67.35 C80.21,69 79.61,70.35 79.1,71.57 C77.9657962,74.1585255 77.3508328,76.9445475 77.29,79.77 C77.29,90.53 77.29,107.77 77.23,113.77 C77.2381553,114.363895 77.0058293,114.935855 76.5858423,115.355842 C76.1658553,115.775829 75.5938953,116.008155 75,116.000208 L41.42,116.000208 C40.2088454,116.005555 39.2209979,115.031117 39.21,113.82 C39.14,106.56 38.77,95.73 38.77,95.73 L25.87,95.73 C17.033444,95.73 9.87,88.566556 9.87,79.73 L9.87,69.14 L4.54,69.14 C1.16,69.14 -0.59,66.56 0.67,63.42 L9.92,40.43 Z" id="Path" fill="#FFFFFF"></path>
                <path d="M76.19,38.35 C75.9865084,37.8619653 76.1014462,37.2991663 76.48,36.93 C76.48,36.93 79.6,33.81 79.22,30.58 C79.0547723,28.287481 77.7620427,26.2266077 75.77,25.08 L74.86,24.6 C73.6876664,23.9949744 72.3289262,23.8591003 71.06,24.22 C69.490358,24.8819037 68.276063,26.1798178 67.72,27.79 C67.5324356,28.2151461 67.1323062,28.5079328 66.6703367,28.5580702 C66.2083672,28.6082077 65.7547417,28.4080788 65.4803367,28.0330702 C65.2059316,27.6580616 65.1524356,27.1651461 65.34,26.74 C66.51,24.12 68.16,22.44 70.25,21.74 C71.2361957,21.4188578 72.2818986,21.3231726 73.31,21.46 L73.75,21.52 L73.6,21.1 C71.767842,16.446434 67.2194746,13.4368377 62.22,13.57 C60.5610674,13.5674777 58.9173895,13.8867044 57.38,14.51 C55.15,15.66 53.78,17.17 53.38,18.99 C52.53,22.43 55.06,26.11 55.17,26.27 C55.5875303,26.8504228 55.4579669,27.6590768 54.88,28.08 C54.2926051,28.4820867 53.4933414,28.3547315 53.06,27.79 C52.94,27.62 50.06,23.54 50.71,19.12 L50.71,18.94 L50.54,18.84 C49.8472414,18.4029242 49.0180233,18.2356571 48.21,18.37 C47.1811236,18.7142729 46.3157186,19.4265404 45.78,20.37 C45.4294237,20.9888491 44.6540072,21.2223552 44.02,20.9 C43.7209317,20.7313458 43.4960931,20.456543 43.39,20.13 C43.289062,19.796628 43.3250465,19.4367828 43.49,19.13 C44.3721934,17.5339612 45.8495398,16.3513651 47.6,15.84 C48.8666163,15.5556972 50.1927245,15.7219027 51.35,16.31 L51.58,16.42 L51.71,16.2 C52.3553171,15.1110917 53.212164,14.1624397 54.23,13.41 L54.55,13.18 L54.21,12.96 C52.68,11.96 50.37,10.87 48.13,11.12 C46.13,11.34 43.43,12.06 42.05,14.23 L41.29,15.41 C40.9958527,15.8715552 40.4441248,16.0994428 39.91,15.98 L38.55,15.67 C37.9984474,15.5465236 37.435198,15.4828227 36.87,15.48 C33.6498237,15.3426492 30.79739,17.5410485 30.11,20.69 L29.88,22 C29.7729917,22.5013453 29.3813453,22.8929917 28.88,23 L27.58,23.29 C24.6419949,23.8073508 22.4658463,26.308671 22.36,29.29 C22.3605654,30.2348023 22.6014514,31.1639341 23.06,31.99 L23.58,32.99 C23.7898286,33.3767035 23.7898286,33.8432965 23.58,34.23 L23.06,35.23 C22.598139,36.058361 22.3570845,36.991586 22.36,37.94 C22.2925866,40.2762236 24.124226,42.2284832 26.46,42.31 C26.8803072,42.3557403 27.2527009,42.6015201 27.46,42.97 C27.55,43.12 29.66,46.72 33.18,47.14 C33.4622065,47.1721902 33.7459658,47.188882 34.03,47.19 C35.5628552,47.1381815 37.0723473,46.7989697 38.48,46.19 L38.72,46.09 L38.63,45.85 C37.8741977,43.7192631 37.7253269,41.4204213 38.2,39.21 L38.2,39.12 L38.12,38.96 C38.0933636,38.9164656 38.073155,38.8693121 38.06,38.82 C37.1694865,35.5999629 34.4493774,33.2179021 31.14,32.76 C30.4287829,32.6913987 29.9062399,32.0616674 29.97,31.35 C29.9977412,31.0062085 30.1630516,30.6881615 30.4284803,30.4679122 C30.693909,30.2476628 31.0369905,30.1438528 31.38,30.18 C34.5654064,30.5966692 37.4140603,32.3729746 39.19,35.05 L39.45,35.45 L39.67,35.02 C40.1276549,34.096192 40.6735261,33.2187794 41.3,32.4 C41.7739803,31.9466428 42.5114388,31.9173717 43.0198606,32.3317355 C43.5282824,32.7460992 43.6484033,33.4742976 43.3,34.03 C43.11,34.28 38.64,40.03 41.4,45.82 L41.5,45.95 C42.8081402,47.7111393 44.8865779,48.7317342 47.08,48.69 C48.6196689,48.7024053 50.1204745,48.2068232 51.35,47.28 L52.35,46.54 L52.35,46.46 C52.85,44.83 54.81,39.35 59.35,37.16 C62.14,35.81 65.35,35.94 68.85,37.56 C69.1590227,37.7079525 69.3990291,37.969452 69.52,38.29 C69.7003289,38.7822806 69.5673081,39.3347029 69.1826599,39.6909395 C68.7980118,40.0471762 68.2370247,40.1374999 67.76,39.92 C65,38.65 62.55,38.51 60.49,39.5 C57.36,41 55.71,44.66 55.01,46.7 L54.94,46.89 L57.29,48.75 C58.5663085,49.4525832 59.9776127,49.8752927 61.43,49.99 C61.65,49.99 62.66,49.99 63.85,49.99 C65.3847152,50.0213529 66.9200319,49.9746259 68.45,49.85 C69.6616009,49.6460483 70.6964413,48.8615122 71.22,47.75 L71.52,47.06 C71.6490561,46.76818 71.8801842,46.5334961 72.17,46.4 L72.86,46.08 C75.096165,45.1565063 76.5752199,42.9987339 76.63,40.58 C76.6313283,39.8748594 76.4989928,39.1758565 76.24,38.52 L76.19,38.35 Z" id="Path" fill="#3348AB"></path>
            </g>
        </g>
    </g>
</svg>